<ttFont>
<head>
    <!-- Most of this table will be recalculated by the compiler -->
    <tableVersion value="1.0"/>
    <fontRevision value="3.2"/>
    <checkSumAdjustment value="0x10e71d9b"/>
    <magicNumber value="0x5f0f3cf5"/>
    <flags value="00000000 00000011"/>
    <unitsPerEm value="1000"/>
    <created value="Fri Dec 22 01:46:18 2017"/>
    <modified value="Fri Dec 22 01:46:18 2017"/>
    <xMin value="-543"/>
    <yMin value="-593"/>
    <xMax value="2510"/>
    <yMax value="1091"/>
    <macStyle value="00000000 00000000"/>
    <lowestRecPPEM value="3"/>
    <fontDirectionHint value="2"/>
    <indexToLocFormat value="0"/>
    <glyphDataFormat value="0"/>
  </head>
          <CharString index="0">
            -107 callgsubr
            80 return
          </CharString>
          <CharString index="1">
            -43 callsubr
            -70 -26 49 61 vhcurveto
            85 58 vlineto
            148 116 74 157 141 -90 78 -131 -135 -85 -85 -122 -14 1 -14 2 -14 hvcurveto
            128 hlineto
            13 -1 12 13 vvcurveto
            60 34 39 56 57 34 -39 -60 -95 -86 -35 -95 vhcurveto
            -142 -185 hlineto
            -140 84 -91 146 vhcurveto
            return
          </CharString>
          <CharString index="2">
            -70 -51 48 76 75 54 48 68 82 39 -62 -61 -59 -40 -65 -82 hvcurveto
            return
          </CharString>
          <CharString index="3">
            rmoveto
            -105 callsubr
            return
          </CharString>
          <CharString index="4">
            -40 -11 -44 -52 -49 -16 40 43 vhcurveto
            31 -125 vlineto
            -1 -10 0 -11 -10 vvcurveto
            -120 69 -73 125 134 56 89 111 vhcurveto
            242 return
          </CharString>
          <CharString index="5">
            -81 callsubr
            272 callsubr
            return
          </CharString>
          <CharString index="6">
            110 callgsubr
            -10 -11 -1 -6 hhcurveto
            -79 -48 -74 callsubr
            108 21 vlineto
            return
          </CharString>
          <CharString index="7">
            632 -90 callgsubr
            return
          </CharString>
          <CharString index="8">
            -6 callsubr
            hvcurveto
            -101 callsubr
            return
          </CharString>
          <CharString index="9">
            44 35 34 43 44 -35 35 -44 -43 -35 -35 -44 -43 35 -34 43 hvcurveto
            return
          </CharString>
          <CharString index="10">
            157 750 351 rmoveto
            209 -158 148 -199 -197 -161 -148 -209 -210 161 -148 197 198 159 148 210 vhcurveto
            -571 hmoveto
            142 87 89 127 126 87 -89 -142 -142 309 callsubr
            -127 -87 91 142 vhcurveto
            return
          </CharString>
          <CharString index="11">
            rmoveto
            74 hlineto
            30 5 16 14 23 40 26 -45 57 hhcurveto
            64 47 40 91 13 hvcurveto
            -75 hlineto
            -30 -4 -16 -13 -23 -40 -26 44 -57 hhcurveto
            -64 -47 -40 -91 -13 hvcurveto
            return
          </CharString>
          <CharString index="12">
            167 callsubr
            vlineto
            -105 callgsubr
            return
          </CharString>
          <CharString index="13">
            rmoveto
            -93 callgsubr
            return
          </CharString>
          <CharString index="14">
            -79 -35 56 83 hvcurveto
            210 228 -224 vlineto
            -68 -39 -57 -75 vhcurveto
            return
          </CharString>
          <CharString index="15">
            15 callgsubr
            72 -66 hlineto
            -63 -31 -41 -54 vhcurveto
            return
          </CharString>
          <CharString index="16">
            146 callgsubr
            66 35 64 80 67 47 -50 -71 -76 -48 -44 -63 -10 -12 1 3 -9 vhcurveto
            -102 vlineto
            -5 22 20 -2 24 hhcurveto
            119 88 83 145 130 -79 99 -126 -75 -52 -34 -49 -28 hvcurveto
            173 439 108 return
          </CharString>
          <CharString index="17">
            -49 callgsubr
            -124 -13 hlineto
            -54 return
          </CharString>
          <CharString index="18">
            -101 callsubr
            80 32 63 74 69 36 -54 -71 return
          </CharString>
          <CharString index="19">
            rmoveto
            -77 -56 52 81 79 57 52 76 91 44 -66 -66 hvcurveto
            -1 vlineto
            -62 -44 -69 -91 vhcurveto
            return
          </CharString>
          <CharString index="20">
            -89 callsubr
            -82 -48 -54 -79 -6 -12 1 1 -9 174 callsubr
            return
          </CharString>
          <CharString index="21">
            rmoveto
            -124 hlineto
            -36 -10 -37 -37 -60 hhcurveto
            -70 -45 47 71 70 45 49 70 63 36 -39 -36 8 hvcurveto
            124 hlineto
            97 -13 -71 81 -145 hhcurveto
            311 callsubr
            45 37 15 42 vhcurveto
            177 180 133 108 return
          </CharString>
          <CharString index="22">
            -123 hlineto
            -88 -60 -62 -91 -89 -60 59 84 100 74 49 94 vhcurveto
            123 200 188 108 return
          </CharString>
          <CharString index="23">
            99 54 -75 -78 -25 -6 -26 -12 -22 hvcurveto
            -238 191 rlineto
            22 28 35 13 40 hhcurveto
            return
          </CharString>
          <CharString index="24">
            -88 callsubr
            371 454 rmoveto
            108 return
          </CharString>
          <CharString index="25">
            -108 -60 66 95 hvcurveto
            0 vlineto
            120 10 55 126 callsubr
            -104 vhcurveto
            return
          </CharString>
          <CharString index="26">
            -28 callsubr
            -58 return
          </CharString>
          <CharString index="27">
            176 callsubr
            -127 -67 -78 -107 -13 2 -15 2 -11 vhcurveto
            130 hlineto
            -3 12 -1 11 11 vvcurveto
            49 28 31 41 48 20 -39 -57 vhcurveto
            -83 -74 vlineto
            -119 -95 -63 -128 132 callgsubr
            hvcurveto
            return
          </CharString>
          <CharString index="28">
            rmoveto
            -135 -69 44 79 53 36 44 82 hvcurveto
            18 104 -20 hlineto
            -72 -28 36 60 hvcurveto
            79 310 -96 vlineto
            -72 -17 -56 -52 -98 vvcurveto
            -36 6 -34 10 -27 vhcurveto
            215 callsubr
            return
          </CharString>
          <CharString index="29">
            -119 -94 -63 -128 -57 callsubr
            hvcurveto
            59 return
          </CharString>
          <CharString index="30">
            -23 -106 callgsubr
            return
          </CharString>
          <CharString index="31">
            316 -119 vlineto
            -73 -55 -35 -55 -74 -47 47 73 84 63 45 85 150 callgsubr
            125 return
          </CharString>
          <CharString index="32">
            67 callgsubr
            141 87 63 43 48 33 vhcurveto
            -86 vlineto
            -103 -60 -44 -77 -70 -52 33 50 -14 vhcurveto
            -139 hlineto
            -127 14 109 -78 156 hhcurveto
            182 92 119 150 hvcurveto
            558 -141 -79 vlineto
            48 -33 -63 40 -87 hhcurveto
            -141 -112 -111 -173 hvcurveto
            436 -2 rmoveto
            -105 -70 -58 -77 -75 -71 60 105 105 71 56 75 77 70 -58 -105 vhcurveto
            return
          </CharString>
          <CharString index="33">
            54 82 -2 callgsubr
            114 callgsubr
            return
          </CharString>
          <CharString index="34">
            98 -77 289 callsubr
            122 return
          </CharString>
          <CharString index="35">
            rmoveto
            -48 -37 14 callgsubr
            -54 vhcurveto
            2 -109 rmoveto
            131 71 82 138 hvcurveto
            59 return
          </CharString>
          <CharString index="36">
            -8 rmoveto
            -106 callsubr
            return
          </CharString>
          <CharString index="37">
            -96 474 699 rmoveto
            -405 -699 405 114 -265 185 235 111 -235 175 265 hlineto
            return
          </CharString>
          <CharString index="38">
            535 rmoveto
            -73 -1 -50 -32 -28 -47 rrcurveto
            177 389 -63 vlineto
            -69 -23 -44 -53 -21 vhcurveto
            -27 59 -53 42 -82 -1 rrcurveto
            -397 -350 -104 callsubr
            755 16 rmoveto
            -107 -61 69 callgsubr
            -509 100 rmoveto
            66 33 63 78 1 vhcurveto
            62 1 31 -40 9 -41 rrcurveto
            -153 7 96 -105 165 44 callgsubr
            -67 callsubr
            return
          </CharString>
          <CharString index="39">
            224 callsubr
            210 callgsubr
            return
          </CharString>
          <CharString index="40">
            129 -100 callsubr
            return
          </CharString>
          <CharString index="41">
            rmoveto
            -148 81 -149 -81 rlineto
            -102 vlineto
            149 84 148 -84 rlineto
            return
          </CharString>
          <CharString index="42">
            88 543 hmoveto
            148 hlineto
            -251 699 rlineto
            -163 hlineto
            -251 -699 rlineto
            147 hlineto
            46 133 rlineto
            278 hlineto
            return
          </CharString>
          <CharString index="43">
            rmoveto
            99 249 callgsubr
            -25 -11 -23 158 callsubr
            27 35 12 39 hhcurveto
            -303 vmoveto
            -84 -72 56 94 29 7 25 12 22 hvcurveto
            239 -191 rlineto
            -21 -25 -34 -14 -43 hhcurveto
            return
          </CharString>
          <CharString index="44">
            -140 32 callgsubr
            vhcurveto
            -158 214 callsubr
            vlineto
            endchar
          </CharString>
          <CharString index="45">
            -179 178 309 -54 hlineto
            -87 -44 -37 -86 vhcurveto
            251 -253 143 callgsubr
            110 11 65 70 112 vvcurveto
            77 167 -45 callgsubr
            return
          </CharString>
          <CharString index="46">
            311 callgsubr
            -175 308 callsubr
            -53 callgsubr
            return
          </CharString>
          <CharString index="47">
            -14 9 -17 8 -19 4 rrcurveto
            2 vlineto
            72 22 39 57 73 vvcurveto
            109 -82 71 -122 -127 -87 -77 -118 vhcurveto
            119 hlineto
            52 41 34 54 49 40 -34 -55 -46 -36 -40 -66 vhcurveto
            return
          </CharString>
          <CharString index="48">
            93 hlineto
            -2 5 -1 7 6 vvcurveto
            38 30 25 36 42 30 -31 -43 -67 -62 -40 -81 -124 -68 78 103 124 90 62 118 vhcurveto
            return
          </CharString>
          <CharString index="49">
            -52 -32 38 54 hvcurveto
            272 166 -272 vlineto
            -54 -29 -38 -53 vhcurveto
            return
          </CharString>
          <CharString index="50">
            -116 -37 callsubr
            return
          </CharString>
          <CharString index="51">
            rmoveto
            104 79 43 73 45 hvcurveto
            -68 44 76 -39 102 143 callsubr
            101 callgsubr
            -691 -108 156 -54 vlineto
            -99 -47 79 callgsubr
            -1 -19 -18 vvcurveto
            -2 vlineto
            0 vlineto
            -106 1 -57 -75 -114 121 callgsubr
            return
          </CharString>
          <CharString index="52">
            144 callgsubr
            hvcurveto
            -96 callgsubr
            return
          </CharString>
          <CharString index="53">
            396 210 -1 rmoveto
            164 1 137 497 131 -497 rlineto
            165 hlineto
            195 698 rlineto
            -151 hlineto
            -124 -539 -134 539 rlineto
            -156 hlineto
            -142 -542 -123 542 rlineto
            -150 hlineto
            return
          </CharString>
          <CharString index="54">
            -117 -51 65 79 -5 -46 callsubr
            return
          </CharString>
          <CharString index="55">
            50 -33 -58 32 -77 hhcurveto
            -129 -87 -87 -123 -9 hvcurveto
            -99 -16 -67 -45 -93 hhcurveto
            -68 -55 callsubr
            return
          </CharString>
          <CharString index="56">
            117 hlineto
            -2 12 -2 12 14 vvcurveto
            53 31 34 51 49 29 -37 -46 -98 -90 -25 -103 vhcurveto
            return
          </CharString>
          <CharString index="57">
            rmoveto
            133 hlineto
            -130 214 rlineto
            -129 hlineto
            return
          </CharString>
          <CharString index="58">
            -86 -43 -59 -110 vhcurveto
            -5 hlineto
            56 -39 -71 38 -111 hhcurveto
            -153 -122 -80 -170 47 callgsubr
            57 47 94 104 33 -62 -42 hvcurveto
            -70 vlineto
            -71 callgsubr
            return
          </CharString>
          <CharString index="59">
            216 170 hmoveto
            152 hlineto
            101 387 101 -387 rlineto
            151 hlineto
            162 554 rlineto
            -134 hlineto
            -98 -421 -104 421 rlineto
            -148 hlineto
            -106 -422 -98 422 rlineto
            -142 hlineto
            return
          </CharString>
          <CharString index="60">
            rmoveto
            -66 -44 42 66 66 44 42 66 66 43 -42 -66 -66 -43 -42 -66 hvcurveto
            return
          </CharString>
          <CharString index="61">
            vhcurveto
            -45 callsubr
            return
          </CharString>
          <CharString index="62">
            -22 callgsubr
            -111 -89 -68 -126 233 callgsubr
            hvcurveto
            -51 callsubr
            -91 hlineto
            -4 -22 -1 -22 -20 vvcurveto
            return
          </CharString>
          <CharString index="63">
            -160 -100 -101 -138 -141 101 -103 160 return
          </CharString>
          <CharString index="64">
            131 82 79 132 hvcurveto
            16 -126 -14 vlineto
            279 callsubr
            return
          </CharString>
          <CharString index="65">
            219 632 rmoveto
            -90 callgsubr
            return
          </CharString>
          <CharString index="66">
            46 -36 36 -49 -51 -36 -36 -46 -46 36 -36 51 49 36 36 46 vhcurveto
            return
          </CharString>
          <CharString index="67">
            -2 22 hhcurveto
            125 97 75 131 128 -92 76 -130 77 callsubr
            -79 callgsubr
            485 108 -875 vlineto
            return
          </CharString>
          <CharString index="68">
            -23 305 167 rmoveto
            -143 387 rlineto
            -157 hlineto
            222 -540 -120 -276 rlineto
            149 hlineto
            343 816 rlineto
            -149 hlineto
            return
          </CharString>
          <CharString index="69">
            hhcurveto
            -50 -82 52 hlineto
            77 44 -4 -141 80 hvcurveto
            65 -82 -28 1 -96 hhcurveto
            -47 -81 50 hlineto
            return
          </CharString>
          <CharString index="70">
            -31 callgsubr
            138 return
          </CharString>
          <CharString index="71">
            -57 3 callsubr
            return
          </CharString>
          <CharString index="72">
            8 248 243 rmoveto
            -243 140 243 vlineto
            236 455 rlineto
            -156 hlineto
            -149 -319 -150 319 rlineto
            -158 hlineto
            return
          </CharString>
          <CharString index="73">
            632 rmoveto
            615 -169 hlineto
            51 -34 -57 32 -78 hhcurveto
            -69 -57 -25 -42 -40 hvcurveto
            35 -31 -44 21 -55 hhcurveto
            -73 -50 -31 -46 -27 hvcurveto
            -246 -273 -104 callsubr
            726 226 callgsubr
            return
          </CharString>
          <CharString index="74">
            rmoveto
            102 86 44 79 50 hvcurveto
            -74 43 78 -44 108 143 callsubr
            130 -70 callgsubr
            -706 -108 172 166 callgsubr
            -15 -36 hlineto
            -125 -81 -74 -120 -116 -52 65 79 -4 255 callgsubr
            return
          </CharString>
          <CharString index="75">
            rmoveto
            230 -105 rlineto
            100 vlineto
            -230 119 rlineto
            return
          </CharString>
          <CharString index="76">
            -78 callgsubr
            -121 5 101 -72 147 hhcurveto
            return
          </CharString>
          <CharString index="77">
            253 callsubr
            -594 -79 rmoveto
            -79 callgsubr
            654 -172 -75 vlineto
            -51 -44 -12 -23 -34 hvcurveto
            66 -33 -69 38 -91 hhcurveto
            -130 -88 242 callgsubr
            57 48 16 29 36 hvcurveto
            -55 32 59 -33 82 hhcurveto
            131 67 99 callsubr
            112 108 -1556 248 callsubr
            vlineto
            37 callgsubr
            endchar
          </CharString>
          <CharString index="78">
            rmoveto
            -69 -51 47 71 74 50 49 70 71 48 -51 -71 -70 -49 -49 -70 hvcurveto
            364 hmoveto
            -70 -48 49 70 71 48 51 71 70 49 -49 -74 -71 -50 -47 -70 hvcurveto
            return
          </CharString>
          <CharString index="79">
            -90 callsubr
            -30 -39 -53 return
          </CharString>
          <CharString index="80">
            -76 -128 -65 24 -51 40 -35 hvcurveto
            -36 -22 -39 -32 -66 hhcurveto
            return
          </CharString>
          <CharString index="81">
            -79 callsubr
            376 199 rmoveto
            111 -54 70 -81 22 vhcurveto
            97 200 108 -1307 -108 549 269 callgsubr
            -58 -16 -44 -38 -14 -59 -17 -51 -49 -41 -65 -1 rrcurveto
            -68 -56 38 71 10 callgsubr
            -129 105 -68 122 2 vhcurveto
            68 1 56 24 41 42 return
          </CharString>
          <CharString index="82">
            -86 -43 -59 -111 vhcurveto
            -81 return
          </CharString>
          <CharString index="83">
            -126 -101 -70 -136 return
          </CharString>
          <CharString index="84">
            -64 callsubr
            endchar
          </CharString>
          <CharString index="85">
            809 318 283 -89 callgsubr
            397 256 rmoveto
            -74 -51 -32 -46 -29 hvcurveto
            171 656 271 callsubr
            -77 -70 -18 -37 -51 hvcurveto
            64 -33 -58 36 -74 hhcurveto
            -154 -252 rmoveto
            292 callsubr
            69 45 -50 -99 -1 vhcurveto
            -1 -11 -1 -12 -12 vvcurveto
            -34 callgsubr
            vhcurveto
            173 callgsubr
            130 -70 callgsubr
            -1478 199 callsubr
            hlineto
            -42 callgsubr
            vlineto
            return
          </CharString>
          <CharString index="86">
            872 1411 286 callsubr
            -1542 -108 1303 -140 -270 -166 vlineto
            -61 -32 -40 -56 -50 -35 37 62 vhcurveto
            12 vlineto
            126 -97 69 -109 -101 -52 -60 -65 -24 vhcurveto
            90 callsubr
            64 31 -47 -72 3 vhcurveto
            -113 6 73 -74 134 hhcurveto
            133 81 89 126 hvcurveto
            55 144 -382 vlineto
            return
          </CharString>
          <CharString index="87">
            364 162 callsubr
            return
          </CharString>
          <CharString index="88">
            -96 62 -52 63 -17 vhcurveto
            -4 vlineto
            -54 -11 -63 -46 -87 vvcurveto
            return
          </CharString>
          <CharString index="89">
            35 13 45 52 vvcurveto
            return
          </CharString>
          <CharString index="90">
            40 102 -20 hlineto
            -99 -50 54 86 92 51 48 88 74 27 -31 -30 12 hvcurveto
            -148 12 95 -94 161 hhcurveto
            95 68 35 52 39 hvcurveto
            -180 return
          </CharString>
          <CharString index="91">
            84 vlineto
            -10 -26 -25 -5 -20 hhcurveto
            -31 -19 16 24 23 16 20 46 23 hvcurveto
            return
          </CharString>
          <CharString index="92">
            -169 vlineto
            51 -34 -57 32 -78 hhcurveto
            return
          </CharString>
          <CharString index="93">
            rmoveto
            347 -69 hlineto
            -92 -43 -52 -110 vhcurveto
            -103 -212 hlineto
            -123 71 -93 140 128 75 82 125 5 0 7 -1 9 vhcurveto
            -124 -25 hlineto
            -55 305 callsubr
            113 22 vlineto
            173 62 102 147 hvcurveto
            69 98 108 -574 vlineto
            return
          </CharString>
          <CharString index="94">
            13 439 481 rmoveto
            -63 -35 -41 -78 vhcurveto
            -117 205 117 hlineto
            78 35 -39 -62 hvcurveto
            -370 217 rmoveto
            -698 140 272 66 vlineto
            154 -272 rlineto
            162 hlineto
            -167 283 rlineto
            112 30 47 86 85 vvcurveto
            117 -84 97 -168 vhcurveto
            return
          </CharString>
          <CharString index="95">
            rmoveto
            44 34 34 43 44 -34 34 -44 -44 -34 -34 -44 -43 34 -34 44 hvcurveto
            endchar
          </CharString>
          <CharString index="96">
            40 101 -20 hlineto
            -99 -50 return
          </CharString>
          <CharString index="97">
            0 vlineto
            4 4 3 4 4 5 rrcurveto
            -246 10 callsubr
            return
          </CharString>
          <CharString index="98">
            -73 callgsubr
            112 -50 rmoveto
            -10 callsubr
            return
          </CharString>
          <CharString index="99">
            rmoveto
            156 69 87 110 hvcurveto
            -110 hlineto
            -53 -35 -48 -80 -82 -33 48 53 vhcurveto
            -111 hlineto
            -110 69 -87 157 vhcurveto
            endchar
          </CharString>
          <CharString index="100">
            86 callgsubr
            53 callgsubr
            return
          </CharString>
          <CharString index="101">
            9 12 1 1 13 return
          </CharString>
          <CharString index="102">
            hmoveto
            0 callgsubr
            return
          </CharString>
          <CharString index="103">
            -115 -108 111 213 callgsubr
            -111 return
          </CharString>
          <CharString index="104">
            53 54 147 callgsubr
            return
          </CharString>
          <CharString index="105">
            -543 711 rmoveto
            124 38 hlineto
            80 36 89 220 223 34 -89 -80 vhcurveto
            -9 -4 callsubr
            return
          </CharString>
          <CharString index="106">
            rmoveto
            311 callgsubr
            -129 75 -90 110 -38 hvcurveto
            -133 -156 274 callgsubr
            -125 145 rlineto
            104 24 59 69 97 vvcurveto
            33 callsubr
            vhcurveto
            124 callsubr
            endchar
          </CharString>
          <CharString index="107">
            327 274 rmoveto
            -89 -39 57 93 hvcurveto
            114 vlineto
            240 -184 rlineto
            -43 -12 -37 -37 -63 hhcurveto
            return
          </CharString>
          <CharString index="108">
            79 callgsubr
            -2 -19 -18 vvcurveto
            return
          </CharString>
          <CharString index="109">
            rmoveto
            -64 -53 -44 -71 -71 53 -44 64 65 52 44 71 71 -52 44 -65 hvcurveto
            -165 vmoveto
            -26 -22 21 29 31 22 19 26 26 22 -19 -31 -29 -22 -21 -26 hvcurveto
            return
          </CharString>
          <CharString index="110">
            -41 -41 -58 hvcurveto
            return
          </CharString>
          <CharString index="111">
            -42 537 36 rmoveto
            -113 hlineto
            -35 -12 -37 -38 -63 hhcurveto
            -77 -49 56 80 80 47 60 78 51 32 -25 -22 16 hvcurveto
            -94 -103 rlineto
            115 hlineto
            94 102 rlineto
            83 -17 -86 63 -115 hhcurveto
            -16 -16 -1 -3 -15 hvcurveto
            -26 11 -17 20 28 vvcurveto
            45 37 15 42 vhcurveto
            177 180 133 108 -627 127 callgsubr
            -55 29 -40 47 -24 hvcurveto
            -62 -40 -38 -68 -86 vvcurveto
            -142 90 -100 151 132 87 74 100 12 vhcurveto
            return
          </CharString>
          <CharString index="112">
            -219 711 rmoveto
            125 69 hlineto
            57 15 72 80 78 15 -72 -57 vhcurveto
            -40 -4 callsubr
            return
          </CharString>
          <CharString index="113">
            vvcurveto
            46 callsubr
            vhcurveto
            214 callgsubr
            return
          </CharString>
          <CharString index="114">
            -60 -42 41 56 178 callsubr
            -40 -57 -36 callsubr
            return
          </CharString>
          <CharString index="115">
            rmoveto
            -109 139 callsubr
            -70 -71 -103 vhcurveto
            return
          </CharString>
          <CharString index="116">
            rmoveto
            29 22 23 28 29 -22 23 -29 -30 -22 -23 -29 -28 22 -23 30 hvcurveto
            endchar
          </CharString>
          <CharString index="117">
            128 -100 callsubr
            return
          </CharString>
          <CharString index="118">
            151 callsubr
            4 -86 52 -61 82 -29 -129 -151 182 callgsubr
            -130 150 rlineto
            74 27 39 57 74 vvcurveto
            130 -104 43 -101 vhcurveto
            211 callgsubr
          </CharString>
          <CharString index="119">
            -64 -32 -41 -55 -54 -31 41 60 -1 vhcurveto
            1 vlineto
            115 -6 -88 111 -171 hhcurveto
            -44 callsubr
            97 73 39 58 44 hvcurveto
            -35 31 46 -20 67 hhcurveto
            133 72 89 126 hvcurveto
            return
          </CharString>
          <CharString index="120">
            rmoveto
            -82 callsubr
            414 223 callsubr
            return
          </CharString>
          <CharString index="121">
            117 callsubr
            78 -109 152 return
          </CharString>
          <CharString index="122">
            hhcurveto
            48 callgsubr
            return
          </CharString>
          <CharString index="123">
            rmoveto
            148 77 81 116 hvcurveto
            -104 hlineto
            -54 -41 -51 -80 -82 -41 51 54 vhcurveto
            -103 hlineto
            -116 77 -81 149 vhcurveto
            -1 170 rmoveto
            31 23 24 30 29 -23 24 -31 -29 -24 -24 -29 -30 24 -24 29 hvcurveto
            endchar
          </CharString>
          <CharString index="124">
            vvcurveto
            142 callgsubr
            vhcurveto
            52 callsubr
            return
          </CharString>
          <CharString index="125">
            295 callgsubr
            -745 -108 630 hlineto
            170 callsubr
            -584 vlineto
            193 callsubr
            68 121 48 -15 38 -20 29 hvcurveto
            155 165 callgsubr
            vhcurveto
            return
          </CharString>
          <CharString index="126">
            -145 441 554 rmoveto
            -402 -115 241 hlineto
            -242 -326 rlineto
            -113 406 115 -247 vlineto
            244 326 rlineto
            return
          </CharString>
          <CharString index="127">
            47 135 callgsubr
            111 -245 rmoveto
            133 hlineto
            -134 155 rlineto
            100 35 68 84 117 vvcurveto
            141 -96 85 -119 22 vhcurveto
            94 294 108 -714 -108 292 339 callgsubr
            -119 70 -85 102 -34 vhcurveto
            -131 -153 rlineto
            66 callsubr
            rlineto
            return
          </CharString>
          <CharString index="128">
            -108 520 -170 vlineto
            47 -30 -52 33 -78 225 callsubr
            173 189 7 8 7 8 6 9 rlinecurve
            -417 -177 -28 callgsubr
            296 194 rmoveto
            -71 -51 48 76 75 53 48 69 82 39 -62 -61 -59 -39 -65 -82 hvcurveto
            endchar
          </CharString>
          <CharString index="129">
            hhcurveto
            -53 63 callsubr
            44 -12 36 -18 return
          </CharString>
          <CharString index="130">
            -29 55 537 rmoveto
            137 hlineto
            46 5 29 44 68 hhcurveto
            64 35 -34 -57 -72 -60 -23 -82 hvcurveto
            -29 -115 29 hlineto
            104 52 -30 -82 -58 -36 -44 -70 -75 -42 45 63 -3 hvcurveto
            -136 hlineto
            -153 6 109 -72 144 hhcurveto
            153 84 88 119 99 -49 60 -74 23 hvcurveto
            4 vlineto
            53 18 57 56 91 vvcurveto
            108 -80 85 -150 -140 -96 -74 -135 -7 vhcurveto
            endchar
          </CharString>
          <CharString index="131">
            -52 526 698 rmoveto
            -476 -118 312 hlineto
            -312 -472 rlineto
            -108 476 118 -314 vlineto
            314 472 rlineto
            return
          </CharString>
          <CharString index="132">
            89 callsubr
            0 0 -1 0 vhcurveto
            -42 -13 -38 -36 -65 hhcurveto
            398 267 rmoveto
            -114 -88 -41 -72 -48 hvcurveto
            -279 204 rlineto
            534 -91 hlineto
            return
          </CharString>
          <CharString index="133">
            126 -70 callgsubr
            -1382 71 callgsubr
            60 50 17 33 36 hvcurveto
            -59 35 61 -35 83 hhcurveto
            76 58 31 52 34 hvcurveto
            -134 20 rmoveto
            -78 -55 52 81 79 57 52 76 91 78 callsubr
            -91 vhcurveto
            return
          </CharString>
          <CharString index="134">
            -130 -137 rlineto
            139 hlineto
            175 191 rlineto
            0 vlineto
            7 7 6 8 5 9 rrcurveto
            -122 16 -104 callsubr
            endchar
          </CharString>
          <CharString index="135">
            86 96 callgsubr
            76 164 callsubr
            -78 -54 -34 -48 -30 vhcurveto
            172 366 108 -948 vlineto
            return
          </CharString>
          <CharString index="136">
            -70 callgsubr
            -1349 -108 815 -54 vlineto
            -83 -47 -40 -113 vhcurveto
            -270 -125 hlineto
            229 callsubr
            -54 -31 41 64 vhcurveto
            125 -131 -128 23 callgsubr
            20 73 vlineto
            23 19 0 1 16 hvcurveto
            -157 16 94 -98 156 hhcurveto
            94 66 34 50 40 hvcurveto
            -177 vlineto
            return
          </CharString>
          <CharString index="137">
            33 hlineto
            68 58 -38 -75 -58 -37 -45 -68 -61 -50 38 66 -7 hvcurveto
            -120 -282 125 138 hlineto
            -38 31 54 -28 68 hhcurveto
            104 79 69 110 67 -29 47 -44 29 hvcurveto
            return
          </CharString>
          <CharString index="138">
            -19 callsubr
            -123 return
          </CharString>
          <CharString index="139">
            38 callgsubr
            -72 -51 28 58 51 41 31 72 vhcurveto
            -96 callgsubr
            -105 -76 -68 -104 -19 callsubr
            return
          </CharString>
          <CharString index="140">
            98 -66 69 -111 -95 -70 -50 -88 -11 2 -13 2 -12 return
          </CharString>
          <CharString index="141">
            rmoveto
            367 -92 -91 80 callgsubr
            182 183 236 108 -728 hlineto
            endchar
          </CharString>
          <CharString index="142">
            283 rmoveto
            41 callgsubr
            return
          </CharString>
          <CharString index="143">
            138 callsubr
            endchar
          </CharString>
          <CharString index="144">
            rmoveto
            -48 -36 32 53 53 147 callgsubr
            72 -64 hlineto
            -64 -31 -41 -54 vhcurveto
            return
          </CharString>
          <CharString index="145">
            rmoveto
            -149 172 149 hlineto
            return
          </CharString>
          <CharString index="146">
            rmoveto
            -81 -35 58 87 hvcurveto
            204 745 85 callsubr
            -106 -89 -60 -118 -21 hvcurveto
            -41 -16 -34 -29 -53 hhcurveto
            return
          </CharString>
          <CharString index="147">
            113 callsubr
            597 -104 hlineto
            -65 -18 -38 -49 -18 -52 rrcurveto
            -3 hlineto
            65 -22 -52 62 -98 150 callsubr
            -81 -156 -149 88 -101 163 9 12 0 1 13 hvcurveto
            110 callgsubr
            -10 -11 111 callgsubr
            -48 49 87 -2 callgsubr
            -65 -78 hvcurveto
            -25 108 25 vlineto
            80 32 63 74 66 35 -53 -69 return
          </CharString>
          <CharString index="148">
            rmoveto
            102 hlineto
            21 4 14 12 25 hhcurveto
            26 15 -14 -22 -26 -18 -12 -29 hvcurveto
            -31 -57 35 hlineto
            29 19 -14 -25 -25 -18 -14 -25 -25 -16 12 26 -4 hvcurveto
            -108 hlineto
            -71 4 54 -45 100 hhcurveto
            90 63 42 58 42 -28 27 -41 12 hvcurveto
            3 vlineto
            38 9 26 25 42 vvcurveto
            59 -61 46 -85 -99 -53 -49 -62 -3 vhcurveto
            endchar
          </CharString>
          <CharString index="149">
            50 86 callsubr
            return
          </CharString>
          <CharString index="150">
            -105 vlineto
            -74 -15 -40 -51 -20 -55 rrcurveto
            return
          </CharString>
          <CharString index="151">
            160 572 hmoveto
            126 -100 callsubr
            -830 292 callgsubr
            -185 hlineto
            -16 callgsubr
            145 -292 vlineto
            -374 -360 rlineto
            149 hlineto
            228 229 rlineto
            return
          </CharString>
          <CharString index="152">
            102 hlineto
            43 7 26 21 34 59 38 -65 83 hhcurveto
            89 67 56 133 23 hvcurveto
            -104 hlineto
            -44 -6 -26 -20 -33 -58 -40 65 -83 hhcurveto
            -89 -66 -55 -134 -23 hvcurveto
            return
          </CharString>
          <CharString index="153">
            -129 -73 callsubr
            -14 callgsubr
            return
          </CharString>
          <CharString index="154">
            hhcurveto
            131 callsubr
            return
          </CharString>
          <CharString index="155">
            224 113 callsubr
            660 -136 -275 -96 hlineto
            235 callgsubr
            131 75 88 123 2 vhcurveto
            155 -69 hlineto
            -353 -366 rlineto
            142 hlineto
            214 235 rlineto
            -192 120 -100 callsubr
            -894 vlineto
            return
          </CharString>
          <CharString index="156">
            167 callsubr
            hlineto
            88 callsubr
          </CharString>
          <CharString index="157">
            126 -76 callsubr
            return
          </CharString>
          <CharString index="158">
            322 541 87 rmoveto
            0 vlineto
            9 12 9 12 8 13 rrcurveto
            -2 11 11 -1 12 hhcurveto
            288 callgsubr
            -181 10 callsubr
            -992 248 callsubr
            vlineto
            51 callgsubr
            return
          </CharString>
          <CharString index="159">
            58 136 vlineto
            -155 10 94 -99 163 15 callsubr
            return
          </CharString>
          <CharString index="160">
            -3 hlineto
            80 -41 -69 43 -90 hhcurveto
            -126 -101 -90 -142 -139 101 -90 127 return
          </CharString>
          <CharString index="161">
            392 283 rmoveto
            -78 -36 56 83 hvcurveto
            210 228 -224 vlineto
            -68 -38 -57 -76 vhcurveto
            -413 349 rmoveto
            170 244 callgsubr
            207 249 5 5 4 4 4 5 rlinecurve
            -242 130 287 vlineto
            292 callsubr
            return
          </CharString>
          <CharString index="162">
            16 91 731 rmoveto
            -428 134 vlineto
            45 15 37 32 58 hhcurveto
            79 41 -45 -82 -77 -37 -58 -82 -68 -41 37 51 -12 hvcurveto
            -136 hlineto
            -119 12 90 -87 157 hhcurveto
            166 86 106 149 113 -58 128 -170 -61 -55 -26 -33 -27 hvcurveto
            171 324 123 vlineto
            endchar
          </CharString>
          <CharString index="163">
            -24 17 44 -43 82 hhcurveto
            114 62 73 96 135 -104 41 -102 hvcurveto
            -44 hlineto
            1 callgsubr
            139 108 return
          </CharString>
          <CharString index="164">
            -89 46 -42 57 -12 vhcurveto
            -3 vlineto
            -71 -20 -50 -52 -86 vvcurveto
            return
          </CharString>
          <CharString index="165">
            136 -82 75 -112 334 callgsubr
            vhcurveto
            107 hlineto
            -9 28 -6 29 26 vvcurveto
            64 39 29 40 44 38 -40 -71 -131 -101 -73 -162 -135 -69 44 79 53 36 44 82 vhcurveto
            18 104 -20 hlineto
            -72 -28 36 60 hvcurveto
            79 629 108 -863 vlineto
            endchar
          </CharString>
          <CharString index="166">
            -15 callsubr
            -137 -89 -97 -135 -140 32 callgsubr
            hvcurveto
            -158 214 callsubr
            vlineto
            endchar
          </CharString>
          <CharString index="167">
            -108 965 -171 vlineto
            97 callsubr
            -53 -45 -15 -28 -35 hvcurveto
            -369 hlineto
            -92 callgsubr
            141 hlineto
            -7 -25 -4 -27 -29 100 callsubr
            return
          </CharString>
          <CharString index="168">
            324 callgsubr
            -141 -127 -67 -77 -105 -13 2 -14 2 -13 vhcurveto
            126 hlineto
            -2 13 -1 9 11 vvcurveto
            48 27 31 42 52 21 -38 -58 vhcurveto
            return
          </CharString>
          <CharString index="169">
            199 callsubr
            vlineto
            -42 callgsubr
            vlineto
            endchar
          </CharString>
          <CharString index="170">
            hlineto
            -24 callsubr
            -129 -73 callsubr
            return
          </CharString>
          <CharString index="171">
            153 -92 84 -129 -71 -60 -30 -47 -36 vhcurveto
            69 199 callgsubr
            return
          </CharString>
          <CharString index="172">
            -150 98 -77 118 61 50 22 38 29 return
          </CharString>
          <CharString index="173">
            131 hlineto
            108 130 return
          </CharString>
          <CharString index="174">
            717 223 callgsubr
            194 -102 hlineto
            3 -15 -16 2 -17 hhcurveto
            -71 -48 -30 -45 -27 hvcurveto
            -246 -275 -104 callsubr
            693 98 -73 callgsubr
            return
          </CharString>
          <CharString index="175">
            rmoveto
            107 50 32 83 vhcurveto
            37 147 hlineto
            -77 -58 -37 -57 -35 hvcurveto
            86 287 callsubr
            return
          </CharString>
          <CharString index="176">
            -89 141 -11 callgsubr
            return
          </CharString>
          <CharString index="177">
            129 -70 callgsubr
            -1392 -108 661 -102 hlineto
            -78 -30 -39 -54 -14 vhcurveto
            59 -37 -72 39 -113 hhcurveto
            -153 -122 -80 -170 47 callgsubr
            57 47 94 88 35 -45 -39 10 hvcurveto
            -35 vlineto
            return
          </CharString>
          <CharString index="178">
            57 callsubr
            -121 93 -71 141 -22 vhcurveto
            -121 -142 rlineto
            66 callsubr
            return
          </CharString>
          <CharString index="179">
            193 113 callsubr
            105 -84 hlineto
            71 callsubr
            108 -130 rlineto
            133 hlineto
            -129 149 rlineto
            156 37 91 106 152 vvcurveto
            return
          </CharString>
          <CharString index="180">
            218 callgsubr
            -146 316 -64 callsubr
            return
          </CharString>
          <CharString index="181">
            93 callsubr
            200 callgsubr
            return
          </CharString>
          <CharString index="182">
            rmoveto
            105 -84 hlineto
            57 callsubr
            -148 138 -73 196 188 callsubr
            return
          </CharString>
          <CharString index="183">
            178 -88 callsubr
            return
          </CharString>
          <CharString index="184">
            -130 -94 -27 callsubr
            return
          </CharString>
          <CharString index="185">
            43 -66 -66 hvcurveto
            -1 vlineto
            -62 -43 -69 return
          </CharString>
          <CharString index="186">
            67 35 51 40 hvcurveto
            return
          </CharString>
          <CharString index="187">
            -96 callgsubr
            -105 -76 -68 -104 83 callsubr
            return
          </CharString>
          <CharString index="188">
            -54 45 10 rmoveto
            494 116 -295 hlineto
            116 98 163 132 169 vvcurveto
            127 -79 93 -157 -131 -107 -77 -167 -5 vhcurveto
            136 hlineto
            77 1 37 48 67 hhcurveto
            69 29 -44 -65 -134 -173 -129 -165 -140 hvcurveto
            endchar
          </CharString>
          <CharString index="189">
            295 callgsubr
            -747 -108 270 callgsubr
            hlineto
            -78 callsubr
            146 vlineto
            -12 -24 -6 -29 -33 248 callgsubr
            vhcurveto
            return
          </CharString>
          <CharString index="190">
            31 callsubr
            108 -57 141 vhcurveto
            return
          </CharString>
          <CharString index="191">
            92 callgsubr
            75 46 -46 -53 8 hvcurveto
            1 -7 0 -7 1 -7 rrcurveto
            -10 vlineto
            -69 1 -43 -65 -89 hhcurveto
            424 23 rmoveto
            -104 -61 56 82 -3 hvcurveto
            122 14 54 74 115 vvcurveto
            90 166 -260 vlineto
            -100 -69 -71 -105 vhcurveto
            return
          </CharString>
          <CharString index="192">
            43 callsubr
            167 callgsubr
            return
          </CharString>
          <CharString index="193">
            33 279 67 callgsubr
            return
          </CharString>
          <CharString index="194">
            -80 276 112 rmoveto
            133 81 89 126 hvcurveto
            55 211 110 -337 203 callsubr
            vhcurveto
            -297 520 rmoveto
            722 108 -722 hlineto
            return
          </CharString>
          <CharString index="195">
            94 callgsubr
            endchar
          </CharString>
          <CharString index="196">
            rmoveto
            -91 -41 57 93 hvcurveto
            115 vlineto
            248 -186 rlineto
            return
          </CharString>
          <CharString index="197">
            -107 callsubr
            31 63 73 return
          </CharString>
          <CharString index="198">
            260 -93 hlineto
            -57 callgsubr
            return
          </CharString>
          <CharString index="199">
            164 87 107 144 116 -55 return
          </CharString>
          <CharString index="200">
            -18 callgsubr
            -171 96 -111 173 94 67 35 51 40 vhcurveto
            -179 return
          </CharString>
          <CharString index="201">
            29 callgsubr
            endchar
          </CharString>
          <CharString index="202">
            159 102 101 151 hvcurveto
            -122 hlineto
            -82 -56 -58 -86 -85 -58 59 84 100 74 49 94 vhcurveto
            373 hlineto
            43 53 -7 -54 -42 -36 -13 -58 hvcurveto
            -47 hlineto
            -9 -1 -8 -9 vvcurveto
            -160 95 -79 128 82 52 33 50 32 vhcurveto
            return
          </CharString>
          <CharString index="203">
            -104 callsubr
            246 return
          </CharString>
          <CharString index="204">
            48 -30 -53 33 -77 hhcurveto
            return
          </CharString>
          <CharString index="205">
            rmoveto
            76 520 -171 vlineto
            97 callsubr
            -90 -68 -45 -73 -33 hvcurveto
            -204 95 callgsubr
            return
          </CharString>
          <CharString index="206">
            82 138 hvcurveto
            59 149 -355 298 callgsubr
            return
          </CharString>
          <CharString index="207">
            vvcurveto
            43 callgsubr
            vhcurveto
            return
          </CharString>
          <CharString index="208">
            rmoveto
            108 hlineto
            23 3 12 14 21 hhcurveto
            21 15 -15 -25 -31 -23 -26 -39 -27 hvcurveto
            -114 -77 rlineto
            -80 287 85 -172 vlineto
            69 39 rlineto
            73 42 32 32 50 vvcurveto
            56 -48 56 -93 -94 -54 -48 -68 -4 vhcurveto
            endchar
          </CharString>
          <CharString index="209">
            rmoveto
            84 171 -216 332 callsubr
            -360 rmoveto
            -28 callsubr
            -57 -27 44 58 vhcurveto
            107 407 -310 101 callgsubr
            return
          </CharString>
          <CharString index="210">
            rmoveto
            -358 -188 vlineto
            591 350 rmoveto
            110 -498 vlineto
            -372 -699 rlineto
            153 hlineto
            69 131 rlineto
            245 -131 403 111 -262 190 232 108 -232 180 hlineto
            endchar
          </CharString>
          <CharString index="211">
            -146 13 rmoveto
            -84 -72 56 94 29 7 25 12 22 hvcurveto
            239 -191 rlineto
            -21 -25 -34 -14 -43 hhcurveto
            303 vmoveto
            99 249 callgsubr
            -25 -11 -23 158 callsubr
            27 35 12 39 hhcurveto
            endchar
          </CharString>
          <CharString index="212">
            rmoveto
            -107 -62 184 callgsubr
            122 330 callgsubr
            166 304 callgsubr
            return
          </CharString>
          <CharString index="213">
            hlineto
            223 145 137 211 212 -145 138 -223 hvcurveto
            -104 return
          </CharString>
          <CharString index="214">
            hlineto
            119 callsubr
            return
          </CharString>
          <CharString index="215">
            178 92 callgsubr
            return
          </CharString>
          <CharString index="216">
            hmoveto
            -100 callsubr
            return
          </CharString>
          <CharString index="217">
            -108 506 -167 hlineto
            49 -37 -57 31 -80 hhcurveto
            -151 -94 -109 -159 hvcurveto
            129 hlineto
            96 60 63 94 70 49 -41 -58 16 vhcurveto
            -382 -331 rlineto
            -6 163 vlineto
            220 209 rlineto
            endchar
          </CharString>
          <CharString index="218">
            96 -25 -80 63 -118 hhcurveto
            -132 -87 -78 -110 -10 hvcurveto
            122 hlineto
            42 11 38 36 59 hhcurveto
            76 39 -55 -63 -66 -39 -55 -76 -58 -41 35 43 -9 hvcurveto
            -122 hlineto
            -109 8 89 -78 132 hhcurveto
            return
          </CharString>
          <CharString index="219">
            124 132 71 return
          </CharString>
          <CharString index="220">
            -21 632 rmoveto
            return
          </CharString>
          <CharString index="221">
            197 301 463 rmoveto
            -68 32 -31 39 1 56 rrcurveto
            44 2 37 40 54 hhcurveto
            59 36 -42 -46 -56 -40 -37 -44 -33 hvcurveto
            309 -460 rmoveto
            119 -70 callgsubr
            -234 -424 hlineto
            return
          </CharString>
          <CharString index="222">
            577 102 rmoveto
            -78 -56 52 81 79 58 52 76 91 78 callsubr
            -91 vhcurveto
            endchar
          </CharString>
          <CharString index="223">
            204 rmoveto
            -68 -51 29 61 48 33 37 77 hvcurveto
            52 104 -42 hlineto
            -79 -29 return
          </CharString>
          <CharString index="224">
            70 callgsubr
            -154 return
          </CharString>
          <CharString index="225">
            247 185 rmoveto
            -92 callsubr
            751 447 rmoveto
            -158 vlineto
            197 callsubr
            -82 -71 -34 -58 -43 hvcurveto
            -177 172 hlineto
            return
          </CharString>
          <CharString index="226">
            -5 -17 -3 -18 -20 vvcurveto
            -96 62 -52 63 -17 vhcurveto
            -4 vlineto
            return
          </CharString>
          <CharString index="227">
            rmoveto
            -93 -52 60 83 hvcurveto
            52 vlineto
            97 8 71 64 140 vvcurveto
            119 362 -159 vlineto
            35 -26 -42 24 -62 hhcurveto
            -111 -82 -84 -120 -66 23 -54 39 -37 hvcurveto
            -35 270 callsubr
            return
          </CharString>
          <CharString index="228">
            96 callsubr
            116 rmoveto
            66 return
          </CharString>
          <CharString index="229">
            160 rmoveto
            -83 callgsubr
            return
          </CharString>
          <CharString index="230">
            -69 36 69 -43 92 hhcurveto
            76 58 31 52 34 hvcurveto
            -158 126 vlineto
            -260 178 rmoveto
            -77 -56 52 81 79 57 52 76 91 78 callsubr
            -91 vhcurveto
            endchar
          </CharString>
          <CharString index="231">
            -59 callsubr
            108 174 170 108 -691 hlineto
            return
          </CharString>
          <CharString index="232">
            120 callgsubr
            hlineto
            158 callgsubr
            return
          </CharString>
          <CharString index="233">
            70 113 vvcurveto
            77 146 callsubr
            -100 -70 -71 return
          </CharString>
          <CharString index="234">
            -145 106 -98 138 79 60 32 48 32 return
          </CharString>
          <CharString index="235">
            66 48 45 70 hvcurveto
            39 102 return
          </CharString>
          <CharString index="236">
            33 397 hmoveto
            140 142 88 122 -88 456 -163 hlineto
            -327 -468 rlineto
            -110 350 vlineto
            -196 122 rmoveto
            205 306 rlineto
            -306 vlineto
            endchar
          </CharString>
          <CharString index="237">
            vvcurveto
            -146 112 -80 146 vhcurveto
            39 101 -18 hlineto
            -99 -51 53 return
          </CharString>
          <CharString index="238">
            132 71 99 callsubr
            return
          </CharString>
          <CharString index="239">
            165 107 105 157 return
          </CharString>
          <CharString index="240">
            vvcurveto
            266 callgsubr
            vhcurveto
            64 callgsubr
            vlineto
            endchar
          </CharString>
          <CharString index="241">
            rmoveto
            -98 callsubr
            62 330 rmoveto
            return
          </CharString>
          <CharString index="242">
            -10 28 31 vvcurveto
            60 38 38 55 60 31 -43 -48 vhcurveto
            88 hlineto
            106 7 -65 68 -104 hhcurveto
            -106 -49 -68 -71 -9 hvcurveto
            -81 115 -58 14 -114 177 callsubr
            return
          </CharString>
          <CharString index="243">
            113 callsubr
            386 -70 hlineto
            -66 -39 -38 -66 vhcurveto
            -37 -113 55 hlineto
            83 33 -59 -56 -65 -42 -46 -67 -68 -50 49 66 hvcurveto
            -123 hlineto
            -141 103 -90 144 return
          </CharString>
          <CharString index="244">
            -124 73 -94 return
          </CharString>
          <CharString index="245">
            134 callsubr
            -70 -51 48 76 75 54 48 68 82 39 -62 -61 -59 -40 -65 -82 hvcurveto
            return
          </CharString>
          <CharString index="246">
            -60 66 95 hvcurveto
            0 vlineto
            121 330 callgsubr
            146 callsubr
            -100 return
          </CharString>
          <CharString index="247">
            -118 -23 -94 -85 -140 vvcurveto
            -156 121 -98 156 return
          </CharString>
          <CharString index="248">
            vhcurveto
            303 -201 -40 callgsubr
            return
          </CharString>
          <CharString index="249">
            -54 vlineto
            -81 -32 -46 -72 -15 vhcurveto
            40 -36 -60 30 return
          </CharString>
          <CharString index="250">
            hhcurveto
            95 67 35 51 39 hvcurveto
            -179 return
          </CharString>
          <CharString index="251">
            hlineto
            145 callsubr
            return
          </CharString>
          <CharString index="252">
            64 -22 -51 61 -100 hhcurveto
            return
          </CharString>
          <CharString index="253">
            167 -260 vlineto
            return
          </CharString>
          <CharString index="254">
            hmoveto
            140 554 -140 hlineto
            return
          </CharString>
          <CharString index="255">
            rlineto
            72 61 30 52 78 175 callsubr
            -87 51 -62 84 -52 vhcurveto
            -203 -157 rlineto
            -15 147 vlineto
            154 120 return
          </CharString>
          <CharString index="256">
            -108 256 183 callgsubr
            return
          </CharString>
          <CharString index="257">
            hhcurveto
            -122 -99 return
          </CharString>
          <CharString index="258">
            rmoveto
            367 -92 -91 -78 callgsubr
            return
          </CharString>
          <CharString index="259">
            127 callgsubr
            -54 28 -39 return
          </CharString>
          <CharString index="260">
            195 callsubr
            vlineto
            endchar
          </CharString>
          <CharString index="261">
            97 79 133 118 return
          </CharString>
          <CharString index="262">
            84 hmoveto
            142 439 97 115 -97 23 hlineto
            62 23 22 68 -2 vhcurveto
            118 vlineto
            -156 4 -77 -63 -136 vvcurveto
            -28 -63 -115 63 vlineto
            return
          </CharString>
          <CharString index="263">
            -109 hlineto
            -88 -60 -66 -102 -68 -51 29 61 48 33 37 77 vhcurveto
            336 callsubr
            378 108 -614 vlineto
            endchar
          </CharString>
          <CharString index="264">
            -698 370 111 -230 587 vlineto
            return
          </CharString>
          <CharString index="265">
            hvcurveto
            -237 191 rlineto
            22 return
          </CharString>
          <CharString index="266">
            vlineto
            -27 callgsubr
            return
          </CharString>
          <CharString index="267">
            -13 callgsubr
            hlineto
            return
          </CharString>
          <CharString index="268">
            188 hlineto
            41 52 -8 -53 -42 -36 -13 -58 hvcurveto
            -46 hlineto
            -1 -9 0 -8 -9 vvcurveto
            -157 95 -75 127 83 52 33 50 32 vhcurveto
            endchar
          </CharString>
          <CharString index="269">
            -92 -88 -78 callgsubr
            return
          </CharString>
          <CharString index="270">
            34 vhcurveto
            -158 127 -70 callgsubr
            -639 -108 402 return
          </CharString>
          <CharString index="271">
            38 322 callsubr
            135 -72 97 -132 return
          </CharString>
          <CharString index="272">
            -97 -135 -140 98 -99 161 return
          </CharString>
          <CharString index="273">
            -108 154 callgsubr
            return
          </CharString>
          <CharString index="274">
            -108 454 -171 return
          </CharString>
          <CharString index="275">
            rmoveto
            -83 -39 49 64 -5 hvcurveto
            92 8 52 46 69 vvcurveto
            102 -83 48 -132 vhcurveto
            -255 97 593 -313 hlineto
            -106 -56 -64 -84 vhcurveto
            return
          </CharString>
          <CharString index="276">
            -628 -213 736 rmoveto
            122 hlineto
            -132 233 -53 23 -147 302 callsubr
            return
          </CharString>
          <CharString index="277">
            260 callsubr
            -13 2 -15 2 -11 vhcurveto
            130 hlineto
            -3 12 -1 11 11 vvcurveto
            49 28 31 41 48 20 -39 -57 vhcurveto
            -83 return
          </CharString>
          <CharString index="278">
            -56 -34 -34 -61 -73 vvcurveto
            -114 76 -87 124 69 52 27 45 31 vhcurveto
            -127 118 447 vlineto
            43 41 23 58 70 vvcurveto
            return
          </CharString>
          <CharString index="279">
            rmoveto
            76 155 -204 vlineto
            -4 -190 159 callsubr
            return
          </CharString>
          <CharString index="280">
            rmoveto
            293 callsubr
            67 43 -47 -70 vhcurveto
            -8 vlineto
            -105 72 -89 141 return
          </CharString>
          <CharString index="281">
            vhcurveto
            -113 vlineto
            -1 13 12 -1 9 hhcurveto
            return
          </CharString>
          <CharString index="282">
            vvcurveto
            105 -80 80 -133 -129 -80 -83 -109 return
          </CharString>
          <CharString index="283">
            324 callgsubr
            -144 return
          </CharString>
          <CharString index="284">
            1 rrcurveto
            -46 -105 49 hlineto
            return
          </CharString>
          <CharString index="285">
            58 233 callsubr
            return
          </CharString>
          <CharString index="286">
            -230 113 callsubr
            107 -58 hlineto
            238 callgsubr
            return
          </CharString>
          <CharString index="287">
            243 callgsubr
            -57 -96 -6 vhcurveto
            69 -26 -57 49 -87 hhcurveto
            return
          </CharString>
          <CharString index="288">
            rmoveto
            186 -585 140 585 186 113 -512 hlineto
            return
          </CharString>
          <CharString index="289">
            -54 hlineto
            -18 callgsubr
            return
          </CharString>
          <CharString index="290">
            329 callsubr
            endchar
          </CharString>
          <CharString index="291">
            -159 -126 -74 return
          </CharString>
          <CharString index="292">
            rmoveto
            -64 -1 -45 41 62 vvcurveto
            57 38 40 60 5 vhcurveto
            52 5 41 20 25 31 rrcurveto
            -155 vlineto
            -51 -36 -54 -71 vhcurveto
            return
          </CharString>
          <CharString index="293">
            250 callgsubr
            122 83 69 33 58 41 vhcurveto
            -189 return
          </CharString>
          <CharString index="294">
            hlineto
            65 21 34 48 41 26 -32 -51 -2 vhcurveto
            113 hlineto
            115 5 -65 76 -121 hhcurveto
            -141 -45 -101 -107 hvcurveto
            return
          </CharString>
          <CharString index="295">
            234 143 119 190 return
          </CharString>
          <CharString index="296">
            77 202 callgsubr
          </CharString>
          <CharString index="297">
            121 callsubr
            31 64 80 return
          </CharString>
          <CharString index="298">
            23 callgsubr
            55 return
          </CharString>
          <CharString index="299">
            184 callsubr
            -173 -34 callgsubr
            hvcurveto
            return
          </CharString>
          <CharString index="300">
            -24 callsubr
            -128 98 271 callgsubr
            92 return
          </CharString>
          <CharString index="301">
            0 vlineto
            120 10 55 70 113 vvcurveto
            77 return
          </CharString>
          <CharString index="302">
            hhcurveto
            66 49 24 41 31 hvcurveto
            -239 return
          </CharString>
          <CharString index="303">
            -166 -126 -93 -178 return
          </CharString>
          <CharString index="304">
            45 -36 -58 33 -79 hhcurveto
            return
          </CharString>
          <CharString index="305">
            141 323 callsubr
            return
          </CharString>
          <CharString index="306">
            -108 95 -210 return
          </CharString>
          <CharString index="307">
            77 77 120 return
          </CharString>
          <CharString index="308">
            327 159 rmoveto
            -86 -74 55 94 29 6 26 12 22 hvcurveto
            238 -192 rlineto
            -21 -24 -33 -13 -39 hhcurveto
            return
          </CharString>
          <CharString index="309">
            hlineto
            -24 callsubr
            -129 98 -76 289 callsubr
            123 48 -15 38 -20 28 hvcurveto
            return
          </CharString>
          <CharString index="310">
            -162 vlineto
            -74 callgsubr
            return
          </CharString>
          <CharString index="311">
            -94 callsubr
            380 vlineto
            return
          </CharString>
          <CharString index="312">
            rmoveto
            -105 -61 67 99 -2 hvcurveto
            114 14 62 68 106 vvcurveto
            77 165 -260 321 callgsubr
            return
          </CharString>
          <CharString index="313">
            -98 -63 -47 -81 -54 28 -39 45 -24 hvcurveto
            -60 -38 -37 -63 -81 vvcurveto
            -133 90 -94 151 vhcurveto
            endchar
          </CharString>
          <CharString index="314">
            rmoveto
            -94 vlineto
            -72 -14 -63 -37 -39 -59 -279 204 rcurveline
            return
          </CharString>
          <CharString index="315">
            240 callsubr
            vlineto
            return
          </CharString>
          <CharString index="316">
            -43 rmoveto
            -109 57 -18 vlineto
            -42 -16 -20 -33 vhcurveto
            -57 vlineto
            83 41 52 86 32 -4 36 -12 40 hvcurveto
            return
          </CharString>
          <CharString index="317">
            -123 hlineto
            -76 -53 -53 -100 -97 -52 49 68 78 65 37 80 vhcurveto
            148 192 188 108 return
          </CharString>
          <CharString index="318">
            109 -58 18 vlineto
            42 17 20 33 vhcurveto
            57 vlineto
            -84 -41 -52 -86 -32 5 -36 12 -40 hvcurveto
            endchar
          </CharString>
          <CharString index="319">
            -628 -202 737 rmoveto
            110 hlineto
            return
          </CharString>
          <CharString index="320">
            632 234 callgsubr
            return
          </CharString>
          <CharString index="321">
            126 632 return
          </CharString>
          <CharString index="322">
            107 hlineto
            -9 28 -6 29 26 vvcurveto
            64 39 29 40 44 38 -40 -71 -131 -101 -73 -162 vhcurveto
            return
          </CharString>
          <CharString index="323">
            -93 callgsubr
            407 return
          </CharString>
          <CharString index="324">
            hlineto
            253 -349 -73 callgsubr
            return
          </CharString>
          <CharString index="325">
            109 callgsubr
            278 callsubr
            return
          </CharString>
          <CharString index="326">
            110 hlineto
            1 -361 rlineto
            -149 81 -103 169 return
          </CharString>
          <CharString index="327">
            94 74 49 76 30 hvcurveto
            4 hlineto
            return
          </CharString>
          <CharString index="328">
            60 hlineto
            176 callsubr
            return
          </CharString>
          <CharString index="329">
            48 -15 38 -21 29 return
          </CharString>
          <CharString index="330">
            431 rmoveto
            108 return
          </CharString>
          <CharString index="331">
            -108 326 return
          </CharString>
          <CharString index="332">
            hhcurveto
            -130 -84 -93 -139 -119 70 -84 102 -16 hvcurveto
            -130 -137 rlineto
            139 hlineto
            return
          </CharString>
          <CharString index="333">
            247 208 rmoveto
            -49 -36 32 50 53 40 32 55 hvcurveto
            76 -62 hlineto
            -64 -29 -41 -57 vhcurveto
            return
          </CharString>
          <CharString index="334">
            273 131 rmoveto
            -60 -42 40 57 57 42 41 60 58 41 -41 -56 -58 -41 -40 -58 hvcurveto
            return
          </CharString>
          <CharString index="335">
            -107 hlineto
            -71 -42 -60 -79 -87 -38 58 87 vhcurveto
            204 353 108 -578 vlineto
            endchar
          </CharString>
          <CharString index="336">
            -64 -32 -41 -56 return
          </CharString>
          <CharString index="337">
            -108 -252 rlineto
            147 hlineto
            57 252 rlineto
            return
          </CharString>
          <CharString index="338">
            375 -91 -5 258 callgsubr
            return
          </CharString>
          <CharString index="339">
            -99 -47 298 callsubr
            return
          </CharString>
          <CharString index="340">
            42 9 callgsubr
            return
          </CharString>
          <CharString index="341">
            185 253 callsubr
            return
          </CharString>
          <CharString index="342">
            -51 -32 -32 -56 -70 vvcurveto
            -108 72 -83 118 61 50 22 43 31 vhcurveto
            -127 return
          </CharString>
          <CharString index="343">
            -371 -104 callsubr
            return
          </CharString>
          <CharString index="344">
            rmoveto
            106 -180 294 callsubr
            180 return
          </CharString>
          <CharString index="345">
            178 37 callsubr
            return
          </CharString>
          <CharString index="346">
            rmoveto
            49 37 36 46 46 -37 36 -49 -50 -36 -36 -46 -46 36 -36 50 hvcurveto
            endchar
          </CharString>
          <CharString index="347">
            -133 -309 return
          </CharString>
          <CharString index="348">
            -89 -41 61 89 hvcurveto
            115 vlineto
            254 -184 rlineto
            -48 -18 -42 -33 -64 hhcurveto
            return
          </CharString>
          <CharString index="349">
            516 744 hmoveto
            295 callsubr
            return
          </CharString>
          <CharString index="350">
            -11 -104 callsubr
            return
          </CharString>
          <CharString index="351">
            -45 callgsubr
            304 -201 145 callgsubr
            return
          </CharString>
          <CharString index="352">
            89 175 -89 175 rlineto
            -132 hlineto
            91 -175 -91 -175 rlineto
            endchar
          </CharString>
          <CharString index="353">
            hlineto
            261 callsubr
            return
          </CharString>
          <CharString index="354">
            hhcurveto
            -74 -50 -33 -48 -27 hvcurveto
            return
          </CharString>
          <CharString index="355">
            -108 260 -93 return
          </CharString>
          <CharString index="356">
            265 callgsubr
            hlineto
            return
          </CharString>
          <CharString index="357">
            -15 callsubr
            -61 -51 -19 -33 -38 hvcurveto
            -177 hlineto
            return
          </CharString>
          <CharString index="358">
            -58 vlineto
            60 callgsubr
            return
          </CharString>
          <CharString index="359">
            87 hhcurveto
            142 111 115 173 173 -111 111 -142 return
          </CharString>
          <CharString index="360">
            rmoveto
            -48 -36 14 callgsubr
            -55 vhcurveto
            return
          </CharString>
          <CharString index="361">
            rmoveto
            6 6 5 7 5 6 rrcurveto
            -152 125 289 callgsubr
            return
          </CharString>
          <CharString index="362">
            rmoveto
            -60 -42 41 57 58 320 callsubr
            -56 -58 3 callsubr
            return
          </CharString>
          <CharString index="363">
            331 callsubr
            -11 40 hvcurveto
            return
          </CharString>
          <CharString index="364">
            -43 rmoveto
            -109 58 -18 vlineto
            -42 return
          </CharString>
          <CharString index="365">
            rcurveline
            66 callsubr
            return
          </CharString>
          <CharString index="366">
            -25 -23 -3 -6 -21 vhcurveto
            return
          </CharString>
          <CharString index="367">
            -7 291 callsubr
            return
          </CharString>
          <CharString index="368">
            23 -18 callsubr
            return
          </CharString>
          <CharString index="369">
            83 79 132 2 0 6 -1 8 hvcurveto
            -126 -14 hlineto
            -60 -33 -41 return
          </CharString>
          <CharString index="370">
            -58 -43 29 59 48 35 34 63 hvcurveto
            9 102 -10 hlineto
            -63 -40 29 52 return
          </CharString>
          <CharString index="371">
            -43 313 callsubr
            6 5 vvcurveto
            32 return
          </CharString>
          <CharString index="372">
            hlineto
            276 callgsubr
            return
          </CharString>
          <CharString index="373">
            -266 133 hmoveto
            144 729 -241 -129 97 hlineto
            endchar
          </CharString>
          <CharString index="374">
            -34 -48 -29 hvcurveto
            172 440 108 return
          </CharString>
          <CharString index="375">
            269 -274 vlineto
            -93 -72 -61 -90 vhcurveto
            return
          </CharString>
          <CharString index="376">
            741 rmoveto
            -128 -741 128 hlineto
            return
          </CharString>
          <CharString index="377">
            -22 -38 -30 -64 hhcurveto
            return
          </CharString>
          <CharString index="378">
            -138 -139 vlineto
            return
          </CharString>
          <CharString index="379">
            -26 44 58 vhcurveto
            return
          </CharString>
          <CharString index="380">
            485 hmoveto
            119 344 139 hlineto
            32 31 5 12 27 hvcurveto
            return
          </CharString>
          <CharString index="381">
            304 callsubr
            66 35 64 80 67 47 -50 -71 return
          </CharString>
          <CharString index="382">
            -52 -47 -15 38 34 vhcurveto
            26 -110 vlineto
            -1 -10 0 -10 -10 vvcurveto
            return
          </CharString>
          <CharString index="383">
            hhcurveto
            117 75 57 58 29 hvcurveto
            endchar
          </CharString>
          <CharString index="384">
            124 301 return
          </CharString>
          <CharString index="385">
            128 632 return
          </CharString>
          <CharString index="386">
            -60 -33 -41 -57 return
          </CharString>
          <CharString index="387">
            vlineto
            -126 75 return
          </CharString>
          <CharString index="388">
            hlineto
            10 30 6 34 36 vvcurveto
            123 -61 78 -83 26 vhcurveto
            106 return
          </CharString>
          <CharString index="389">
            75 -74 99 -17 vhcurveto
            -147 -153 278 callgsubr
            endchar
          </CharString>
          <CharString index="390">
            -158 hlineto
            197 callsubr
            return
          </CharString>
          <CharString index="391">
            -76 vlineto
            -25 callsubr
            return
          </CharString>
          <CharString index="392">
            -108 111 -632 hlineto
            return
          </CharString>
          <CharString index="393">
            hmoveto
            -70 callgsubr
            return
          </CharString>
          <CharString index="394">
            199 callgsubr
            vlineto
            return
          </CharString>
          <CharString index="395">
            -260 vlineto
            -100 -71 -71 return
          </CharString>
          <CharString index="396">
            118 112 92 67 return
          </CharString>
          <CharString index="397">
            hvcurveto
            0 vlineto
            121 10 return
          </CharString>
          <CharString index="398">
            -21 -3 -23 -24 vvcurveto
            return
          </CharString>
          <CharString index="399">
            77 37 67 84 return
          </CharString>
          <CharString index="400">
            66 31 64 80 return
          </CharString>
          <CharString index="401">
            hlineto
            -26 callgsubr
            return
          </CharString>
          <CharString index="402">
            632 181 213 callgsubr
            return
          </CharString>
          <CharString index="403">
            66 95 290 callsubr
            55 70 113 vvcurveto
            77 return
          </CharString>
          <CharString index="404">
            -370 265 rlineto
            370 108 -591 hlineto
            endchar
          </CharString>
          <CharString index="405">
            -48 -113 vhcurveto
            return
          </CharString>
          <CharString index="406">
            rmoveto
            101 -20 vlineto
            -99 -50 55 86 92 64 47 96 hvcurveto
            return
          </CharString>
          <CharString index="407">
            hvcurveto
            133 -383 -67 callsubr
            return
          </CharString>
          <CharString index="408">
            hlineto
            311 callsubr
            return
          </CharString>
          <CharString index="409">
            177 callsubr
            92 28 -15 -137 87 hvcurveto
            return
          </CharString>
          <CharString index="410">
            158 callgsubr
            59 48 19 29 37 vhcurveto
            return
          </CharString>
          <CharString index="411">
            433 hmoveto
            146 callgsubr
            return
          </CharString>
          <CharString index="412">
            -30 -38 -50 -56 -25 43 57 vhcurveto
            return
          </CharString>
          <CharString index="413">
            114 callgsubr
            108 21 vlineto
            return
          </CharString>
          <CharString index="414">
            vlineto
            127 -1 rlineto
            return
          </CharString>
          <CharString index="415">
            137 -103 177 return
          </CharString>
          <CharString index="416">
            -87 -91 -126 return
          </CharString>
          <CharString index="417">
            698 -140 return
          </CharString>
          <CharString index="418">
            224 callgsubr
            hvcurveto
            -25 11 -16 20 27 vvcurveto
            return
          </CharString>
          <CharString index="419">
            112 92 67 122 -14 callgsubr
            hvcurveto
            return
          </CharString>
          <CharString index="420">
            -79 -9 2 -13 1 -11 vhcurveto
            86 hlineto
            -2 5 -1 return
          </CharString>
          <CharString index="421">
            219 109 callsubr
            -113 vlineto
            return
          </CharString>
          <CharString index="422" raw="1">
            f79f1dc4 1f0b  
          </CharString>
          <CharString index="423">
            693 -67 callgsubr
            return
          </CharString>
          <CharString index="424">
            335 callsubr
            152 return
          </CharString>
          <CharString index="425">
            320 338 callgsubr
            return
          </CharString>
          <CharString index="426">
            -94 141 130 76 202 callgsubr
          </CharString>
          <CharString index="427">
            42 39 60 58 41 -40 return
          </CharString>
          <CharString index="428">
            18 rmoveto
            293 callsubr
            return
          </CharString>
          <CharString index="429">
            -50 -71 vhcurveto
            131 hlineto
            return
          </CharString>
          <CharString index="430">
            554 -141 return
          </CharString>
          <CharString index="431">
            -3 -6 -19 vhcurveto
            return
          </CharString>
          <CharString index="432" raw="1">
            f7a51df7 b307f7b8 0a0b 
          </CharString>
          <CharString index="433">
            -68 -56 38 71 128 callsubr
            return
          </CharString>
          <CharString index="434">
            82 39 -62 -61 -59 -40 -65 -82 hvcurveto
            endchar
          </CharString>
          <CharString index="435">
            hvcurveto
            72 -66 hlineto
            -63 -30 -41 return
          </CharString>
          <CharString index="436">
            140 740 -140 hlineto
            return
          </CharString>
          <CharString index="437">
            vlineto
            340 callsubr
            -14 vvcurveto
            return
          </CharString>
          <CharString index="438">
            52 86 32 -5 36 return
          </CharString>
          <CharString index="439">
            -207 vlineto
            261 callsubr
            56 return
          </CharString>
          <CharString index="440">
            -178 -76 vlineto
            -47 -43 -10 -20 -35 hvcurveto
            return
          </CharString>
          <CharString index="441">
            rmoveto
            -268 hlineto
            21 34 11 43 50 vvcurveto
            return
          </CharString>
          <CharString index="442">
            92 68 328 callgsubr
            vhcurveto
            return
          </CharString>
          <CharString index="443">
            52 104 -42 287 callgsubr
            return
          </CharString>
          <CharString index="444">
            257 callsubr
            -17 -20 return
          </CharString>
          <CharString index="445">
            hlineto
            -44 -39 15 42 46 38 13 42 hvcurveto
            return
          </CharString>
          <CharString index="446">
            108 -242 hlineto
            endchar
          </CharString>
          <CharString index="447">
            -2 -13 -1 -14 return
          </CharString>
          <CharString index="448">
            -108 364 return
          </CharString>
        <CharString name=".notdef">
          -128 0 vmoveto
          500 700 -500 hlineto
          250 -305 rmoveto
          -170 255 rlineto
          340 hlineto
          -140 -300 rmoveto
          170 255 rlineto
          -510 vlineto
          -370 -45 rmoveto
          170 255 170 -255 rlineto
          -370 555 rmoveto
          170 -255 -170 -255 rlineto
          endchar
        </CharString>
        <CharString name="A">
          -65 callsubr
          -38 112 90 callgsubr
        </CharString>
        <CharString name="AE">
          309 476 597 103 callsubr
        </CharString>
        <CharString name="Aacute">
          -65 callsubr
          -260 705 -67 callgsubr
          -8 -712 90 callgsubr
        </CharString>
        <CharString name="Abreve">
          -65 callsubr
          21 764 -81 callgsubr
          -59 -652 90 callgsubr
        </CharString>
        <CharString name="Acircumflex">
          -65 callsubr
          10 707 -66 callsubr
          -48 -493 90 callgsubr
        </CharString>
        <CharString name="Adieresis">
          -65 callsubr
          -232 632 rmoveto
          -101 callgsubr
          185 hmoveto
          -101 callgsubr
          9 -520 90 callgsubr
        </CharString>
        <CharString name="Agrave">
          -65 callsubr
          -260 710 -32 callsubr
          222 -712 90 callgsubr
        </CharString>
        <CharString name="Amacron">
          -65 callsubr
          -330 644 rmoveto
          382 100 -382 hlineto
          292 -632 90 callgsubr
        </CharString>
        <CharString name="Aogonek">
          88 277 699 rmoveto
          -251 -699 rlineto
          147 hlineto
          46 133 rlineto
          278 hlineto
          43 -123 rlineto
          -49 -36 -18 -36 -40 vvcurveto
          -80 68 -32 72 32 32 6 9 25 vhcurveto
          84 vlineto
          -10 -25 -25 -5 -20 hhcurveto
          -31 -19 16 25 22 13 20 48 23 hvcurveto
          48 24 -251 699 rlineto
          19 -454 90 callgsubr
        </CharString>
        <CharString name="Aring">
          -65 callsubr
          -138 679 rmoveto
          -26 -22 21 29 31 22 19 26 26 22 -19 -31 -29 -22 -21 -26 hvcurveto
          165 vmoveto
          -64 -53 -44 -71 -71 53 -44 64 65 52 44 71 71 -52 44 -65 hvcurveto
          100 -732 90 callgsubr
        </CharString>
        <CharString name="Atilde">
          -65 callsubr
          -319 619 -96 callsubr
          281 -507 90 callgsubr
        </CharString>
        <CharString name="B">
          15 458 206 rmoveto
          -59 -40 -33 -68 vhcurveto
          -141 188 138 hlineto
          68 43 -36 -60 hvcurveto
          -17 291 rmoveto
          -57 -38 -30 -66 vhcurveto
          -128 175 128 hlineto
          66 38 -32 -56 hvcurveto
          159 -308 rmoveto
          82 -56 73 -79 14 vhcurveto
          68 22 51 53 85 vvcurveto
          104 -81 76 -146 vhcurveto
          -288 -698 301 hlineto
          145 85 78 111 hvcurveto
          endchar
        </CharString>
        <CharString name="C">
          -55 callgsubr
          endchar
        </CharString>
        <CharString name="CR">
          -390 endchar
        </CharString>
        <CharString name="Cacute">
          -55 callgsubr
          232 495 -67 callgsubr
          endchar
        </CharString>
        <CharString name="Ccaron">
          -55 callgsubr
          354 492 -61 callgsubr
        </CharString>
        <CharString name="Ccedilla">
          140 35 350 rmoveto
          -193 131 -141 179 -20 vhcurveto
          -117 62 vlineto
          -19 callgsubr
          41 vlineto
          135 14 107 80 42 130 rrcurveto
          -161 hlineto
          -68 -33 -60 -33 -75 hhcurveto
          -122 -87 90 141 142 87 89 122 75 60 -33 -67 33 hvcurveto
          161 hlineto
          143 -47 -126 83 -155 hhcurveto
          -201 -153 -148 -209 hvcurveto
          endchar
        </CharString>
        <CharString name="Cdotaccent">
          -55 callgsubr
          353 422 rmoveto
          -101 callgsubr
          endchar
        </CharString>
        <CharString name="D">
          102 callgsubr
          endchar
        </CharString>
        <CharString name="Dcaron">
          102 callgsubr
          48 716 -61 callgsubr
        </CharString>
        <CharString name="Dcroat">
          61 callgsubr
        </CharString>
        <CharString name="E">
          -70 callsubr
          endchar
        </CharString>
        <CharString name="Eacute">
          -70 callsubr
          -328 253 -67 callgsubr
          endchar
        </CharString>
        <CharString name="Ebreve">
          -70 callsubr
          -47 312 -81 callgsubr
          endchar
        </CharString>
        <CharString name="Ecaron">
          -70 callsubr
          -207 250 -61 callgsubr
        </CharString>
        <CharString name="Ecircumflex">
          -70 callsubr
          -59 255 -66 callsubr
          endchar
        </CharString>
        <CharString name="Edieresis">
          -70 callsubr
          -300 180 rmoveto
          -101 callgsubr
          185 hmoveto
          -101 callgsubr
          endchar
        </CharString>
        <CharString name="Edotaccent">
          -70 callsubr
          -208 180 rmoveto
          -101 callgsubr
          endchar
        </CharString>
        <CharString name="Egrave">
          -70 callsubr
          -328 258 -32 callsubr
          endchar
        </CharString>
        <CharString name="Emacron">
          -70 callsubr
          -398 192 97 callgsubr
        </CharString>
        <CharString name="Eogonek">
          -96 474 699 rmoveto
          -405 -699 245 hlineto
          -42 -33 -15 -34 -36 -7 callsubr
          rlineto
          114 -265 185 235 111 -235 175 265 vlineto
          endchar
        </CharString>
        <CharString name="Eth">
          61 callgsubr
        </CharString>
        <CharString name="Euro">
          171 90 350 rmoveto
          -12 1 -12 1 -12 vhcurveto
          -69 -83 85 hlineto
          -144 46 129 -93 161 hhcurveto
          155 125 82 144 47 hvcurveto
          -160 hlineto
          -65 -34 -59 -33 -75 hhcurveto
          -82 -66 41 68 -35 hvcurveto
          193 83 -217 hlineto
          -1 12 -1 12 12 vvcurveto
          13 1 13 1 12 vhcurveto
          217 83 -192 hlineto
          67 35 65 40 82 hhcurveto
          75 59 -33 -64 34 hvcurveto
          160 hlineto
          143 -47 -125 83 -155 hhcurveto
          -160 -129 -93 -143 -46 hvcurveto
          -86 -83 69 hlineto
          -1 -12 -1 -13 -13 vvcurveto
          endchar
        </CharString>
        <CharString name="F">
          -98 294 callgsubr
          295 223 111 -223 179 291 113 -431 hlineto
          endchar
        </CharString>
        <CharString name="G">
          140 391 707 -60 callgsubr
          endchar
        </CharString>
        <CharString name="Gbreve">
          140 391 707 -60 callgsubr
          152 190 -81 callgsubr
          endchar
        </CharString>
        <CharString name="Gdotaccent">
          140 391 707 -60 callgsubr
          -8 58 rmoveto
          -101 callgsubr
          endchar
        </CharString>
        <CharString name="H">
          89 508 hmoveto
          140 310 callsubr
          -287 -299 287 -140 -698 140 297 299 hlineto
          endchar
        </CharString>
        <CharString name="I">
          66 callgsubr
          endchar
        </CharString>
        <CharString name="Iacute">
          66 callgsubr
          -51 140 -67 callgsubr
          endchar
        </CharString>
        <CharString name="Icircumflex">
          66 callgsubr
          219 142 -66 callsubr
          endchar
        </CharString>
        <CharString name="Idieresis">
          66 callgsubr
          -23 67 rmoveto
          -101 callgsubr
          185 hmoveto
          -101 callgsubr
          endchar
        </CharString>
        <CharString name="Idotaccent">
          66 callgsubr
          70 67 rmoveto
          -101 callgsubr
          endchar
        </CharString>
        <CharString name="Igrave">
          66 callgsubr
          -51 145 -32 callsubr
          endchar
        </CharString>
        <CharString name="Imacron">
          66 callgsubr
          -120 79 97 callgsubr
        </CharString>
        <CharString name="Iogonek">
          -350 221 -198 rmoveto
          -16 callsubr
          45 23 rlineto
          2 310 callsubr
          -683 265 callsubr
          endchar
        </CharString>
        <CharString name="Itilde">
          66 callgsubr
          -110 54 -96 callsubr
          endchar
        </CharString>
        <CharString name="J">
          -58 335 208 rmoveto
          -55 -26 -35 -52 -53 -27 36 59 -1 vhcurveto
          -140 hlineto
          -141 92 -79 131 129 88 77 138 vhcurveto
          490 -141 vlineto
          endchar
        </CharString>
        <CharString name="K">
          35 463 hmoveto
          163 callgsubr
        </CharString>
        <CharString name="L">
          -169 69 698 rmoveto
          157 callsubr
          endchar
        </CharString>
        <CharString name="Lacute">
          -169 69 698 rmoveto
          157 callsubr
          -106 140 -67 callgsubr
          endchar
        </CharString>
        <CharString name="Lcaron">
          -137 315 698 rmoveto
          -108 57 -19 vlineto
          -41 -16 -20 -33 vhcurveto
          -57 vlineto
          83 41 51 87 32 -4 36 -12 39 hvcurveto
          -362 hmoveto
          157 callsubr
          endchar
        </CharString>
        <CharString name="Ldot">
          -169 69 698 rmoveto
          157 callsubr
          15 67 rmoveto
          -101 callgsubr
          endchar
        </CharString>
        <CharString name="Lslash">
          -165 81 698 rmoveto
          -302 vlineto
          -72 -22 rlineto
          -113 vlineto
          72 22 rlineto
          -283 370 107 -229 220 vlineto
          88 27 rlineto
          114 vlineto
          -88 -27 rlineto
          257 vlineto
          endchar
        </CharString>
        <CharString name="M">
          271 294 callgsubr
          454 hlineto
          188 -454 rlineto
          106 hlineto
          187 454 rlineto
          -454 140 698 -158 vlineto
          -222 -519 -222 519 rlineto
          -159 hlineto
          endchar
        </CharString>
        <CharString name="N">
          107 526 699 8 callgsubr
          endchar
        </CharString>
        <CharString name="NULL">
          -628 endchar
        </CharString>
        <CharString name="Nacute">
          107 526 699 8 callgsubr
          -419 139 -67 callgsubr
          endchar
        </CharString>
        <CharString name="Ncaron">
          107 526 699 8 callgsubr
          -298 136 -61 callgsubr
        </CharString>
        <CharString name="Ntilde">
          107 526 699 8 callgsubr
          -478 53 -96 callsubr
          endchar
        </CharString>
        <CharString name="O">
          -97 callsubr
          endchar
        </CharString>
        <CharString name="OE">
          444 1014 588 rmoveto
          110 -405 -89 vlineto
          66 -55 -79 33 -94 hhcurveto
          -189 -157 -147 -211 -210 156 -148 191 hvcurveto
          93 1 79 32 55 68 rrcurveto
          -93 405 111 -265 189 235 107 -235 181 vlineto
          -356 -9 rmoveto
          126 87 -89 -140 -139 309 callsubr
          -127 -87 91 139 140 87 89 127 hvcurveto
          endchar
        </CharString>
        <CharString name="Oacute">
          -97 callsubr
          93 487 -67 callgsubr
          endchar
        </CharString>
        <CharString name="Ocircumflex">
          -97 callsubr
          362 489 -66 callsubr
          endchar
        </CharString>
        <CharString name="Odieresis">
          -97 callsubr
          121 414 rmoveto
          -101 callgsubr
          185 hmoveto
          -101 callgsubr
          endchar
        </CharString>
        <CharString name="Ograve">
          -97 callsubr
          93 492 -32 callsubr
          endchar
        </CharString>
        <CharString name="Ohungarumlaut">
          -97 callsubr
          142 583 21 callgsubr
        </CharString>
        <CharString name="Omacron">
          -97 callsubr
          23 426 97 callgsubr
        </CharString>
        <CharString name="Oslash">
          157 750 351 rmoveto
          96 -33 83 -55 61 vhcurveto
          99 109 rlineto
          -97 hlineto
          -55 -60 rlineto
          43 -60 -75 25 -81 hhcurveto
          -197 -161 -148 -209 -96 34 -83 55 -62 hvcurveto
          -100 -110 rlineto
          97 hlineto
          56 62 rlineto
          -44 60 75 -25 81 hhcurveto
          198 159 148 210 hvcurveto
          -571 hmoveto
          142 87 89 127 49 44 -14 -25 34 vhcurveto
          -304 -333 rlineto
          -24 38 -13 47 56 vvcurveto
          214 -233 rmoveto
          -50 -43 14 25 -35 hvcurveto
          304 333 rlineto
          24 -37 13 -47 -55 vvcurveto
          -142 309 callsubr
          vhcurveto
          endchar
        </CharString>
        <CharString name="Otilde">
          -97 callsubr
          34 401 -96 callsubr
          endchar
        </CharString>
        <CharString name="P">
          -20 209 381 rmoveto
          203 111 vlineto
          79 35 -38 -64 -62 -35 -39 -79 hvcurveto
          258 101 rmoveto
          121 -84 95 -168 vhcurveto
          -257 -698 140 268 117 hlineto
          180 72 108 106 hvcurveto
          endchar
        </CharString>
        <CharString name="Q">
          159 179 351 rmoveto
          142 87 89 127 126 87 -89 -142 -142 309 callsubr
          -127 -87 91 142 vhcurveto
          571 hmoveto
          209 -158 148 -199 -197 -161 -148 -209 -210 161 -148 197 31 31 4 7 28 vhcurveto
          106 -127 rlineto
          174 hlineto
          -160 180 rlineto
          89 63 58 104 127 vvcurveto
          endchar
        </CharString>
        <CharString name="R">
          -13 callsubr
          endchar
        </CharString>
        <CharString name="Racute">
          -13 callsubr
          -134 140 -67 callgsubr
          endchar
        </CharString>
        <CharString name="Rcaron">
          -13 callsubr
          -12 137 -61 callgsubr
        </CharString>
        <CharString name="S">
          -19 557 202 -68 callgsubr
          -132 2 112 -76 145 hhcurveto
          159 88 99 110 hvcurveto
          endchar
        </CharString>
        <CharString name="Sacute">
          -19 557 202 -68 callgsubr
          -132 2 112 -76 145 hhcurveto
          159 88 99 110 hvcurveto
          -376 643 -67 callgsubr
          endchar
        </CharString>
        <CharString name="Scaron">
          -19 557 202 -68 callgsubr
          -132 2 112 -76 145 hhcurveto
          159 88 99 110 hvcurveto
          -254 640 -61 callgsubr
        </CharString>
        <CharString name="T">
          -51 32 585 181 callsubr
          endchar
        </CharString>
        <CharString name="Tcaron">
          -51 32 585 181 callsubr
          256 137 -61 callgsubr
        </CharString>
        <CharString name="Thorn">
          -20 209 245 rmoveto
          210 111 vlineto
          79 35 -42 -63 -63 -35 -42 -79 hvcurveto
          258 105 rmoveto
          119 -84 94 -168 vhcurveto
          -118 136 -139 -699 140 138 117 hlineto
          180 72 106 106 hvcurveto
          endchar
        </CharString>
        <CharString name="U">
          -86 callgsubr
          endchar
        </CharString>
        <CharString name="Uacute">
          -86 callgsubr
          160 140 -67 callgsubr
          endchar
        </CharString>
        <CharString name="Ubreve">
          -86 callgsubr
          441 199 -81 callgsubr
          endchar
        </CharString>
        <CharString name="Ucircumflex">
          -86 callgsubr
          430 142 -66 callsubr
          endchar
        </CharString>
        <CharString name="Udieresis">
          -86 callgsubr
          189 67 rmoveto
          -101 callgsubr
          185 hmoveto
          -101 callgsubr
          endchar
        </CharString>
        <CharString name="Ugrave">
          -86 callgsubr
          160 145 -32 callsubr
          endchar
        </CharString>
        <CharString name="Uhungarumlaut">
          -86 callgsubr
          210 236 21 callgsubr
        </CharString>
        <CharString name="Umacron">
          -86 callgsubr
          91 79 97 callgsubr
        </CharString>
        <CharString name="Uogonek">
          69 67 267 rmoveto
          -151 85 -87 114 -27 vhcurveto
          -43 -33 -15 -34 -37 -7 callsubr
          rlineto
          1 vlineto
          117 26 89 88 151 vvcurveto
          431 -141 -432 vlineto
          -96 -52 -50 -90 -89 -52 50 96 vhcurveto
          432 -140 vlineto
          endchar
        </CharString>
        <CharString name="Uring">
          -86 callgsubr
          282 279 2 callsubr
          endchar
        </CharString>
        <CharString name="Utilde">
          -86 callgsubr
          102 54 -96 callsubr
          endchar
        </CharString>
        <CharString name="V">
          83 356 143 rmoveto
          -192 555 rlineto
          -150 hlineto
          256 -698 rlineto
          170 hlineto
          256 698 rlineto
          -149 hlineto
          endchar
        </CharString>
        <CharString name="W">
          -54 callsubr
          endchar
        </CharString>
        <CharString name="Wacute">
          -54 callsubr
          413 144 -67 callgsubr
          endchar
        </CharString>
        <CharString name="Wcircumflex">
          -54 callsubr
          635 146 -66 callsubr
          endchar
        </CharString>
        <CharString name="Wdieresis">
          -54 callsubr
          394 68 rmoveto
          -101 callgsubr
          185 hmoveto
          -101 callgsubr
          endchar
        </CharString>
        <CharString name="Wgrave">
          -54 callsubr
          345 145 -32 callsubr
          endchar
        </CharString>
        <CharString name="X">
          58 487 hmoveto
          161 hlineto
          -223 347 219 351 rlineto
          -158 hlineto
          -136 -234 -151 234 rlineto
          -161 hlineto
          223 -346 -220 -352 rlineto
          158 hlineto
          137 235 rlineto
          endchar
        </CharString>
        <CharString name="Y">
          -35 callsubr
          endchar
        </CharString>
        <CharString name="Yacute">
          -35 callsubr
          186 140 -67 callgsubr
          endchar
        </CharString>
        <CharString name="Ycircumflex">
          -35 callsubr
          456 142 -66 callsubr
          endchar
        </CharString>
        <CharString name="Ydieresis">
          -35 callsubr
          214 67 rmoveto
          -101 callgsubr
          185 hmoveto
          -101 callgsubr
          endchar
        </CharString>
        <CharString name="Ygrave">
          -35 callsubr
          186 145 -32 callsubr
          endchar
        </CharString>
        <CharString name="Z">
          24 callsubr
          endchar
        </CharString>
        <CharString name="Zacute">
          24 callsubr
          -359 248 -67 callgsubr
          endchar
        </CharString>
        <CharString name="Zcaron">
          24 callsubr
          -238 245 -61 callgsubr
        </CharString>
        <CharString name="Zdotaccent">
          24 callsubr
          -239 175 rmoveto
          -101 callgsubr
          endchar
        </CharString>
        <CharString name="a">
          -95 callgsubr
          endchar
        </CharString>
        <CharString name="a.ss02">
          -13 404 hmoveto
          -98 callgsubr
        </CharString>
        <CharString name="aacute">
          -95 callgsubr
          -249 416 -67 callgsubr
          endchar
        </CharString>
        <CharString name="aacute.ss02">
          -13 220 316 callsubr
          -46 -812 rmoveto
          -98 callgsubr
        </CharString>
        <CharString name="abreve">
          -95 callgsubr
          32 475 -81 callgsubr
          endchar
        </CharString>
        <CharString name="abreve.ss02">
          -13 501 752 -81 callgsubr
          -97 -752 rmoveto
          -98 callgsubr
        </CharString>
        <CharString name="acircumflex">
          -95 callgsubr
          20 418 -66 callsubr
          endchar
        </CharString>
        <CharString name="acircumflex.ss02">
          -13 489 695 -66 callsubr
          -85 -593 rmoveto
          -98 callgsubr
        </CharString>
        <CharString name="acute">
          -378 10 316 callsubr
          endchar
        </CharString>
        <CharString name="adieresis">
          -95 callgsubr
          -221 343 rmoveto
          -101 callgsubr
          185 hmoveto
          -101 callgsubr
          endchar
        </CharString>
        <CharString name="adieresis.ss02">
          -13 248 620 rmoveto
          -101 callgsubr
          185 hmoveto
          -101 callgsubr
          -29 -620 rmoveto
          -98 callgsubr
        </CharString>
        <CharString name="ae">
          449 -20 callgsubr
          endchar
        </CharString>
        <CharString name="agrave">
          -95 callgsubr
          -249 421 -32 callsubr
          endchar
        </CharString>
        <CharString name="agrave.ss02">
          -13 220 698 -32 callsubr
          184 -812 rmoveto
          -98 callgsubr
        </CharString>
        <CharString name="amacron">
          -95 callgsubr
          -319 355 97 callgsubr
        </CharString>
        <CharString name="amacron.ss02">
          -13 150 632 rmoveto
          382 100 -382 hlineto
          254 -732 rmoveto
          -98 callgsubr
        </CharString>
        <CharString name="ampersand">
          150 537 536 rmoveto
          96 5 -68 81 -131 hhcurveto
          -128 -77 -74 -95 -46 14 -38 37 -45 hvcurveto
          -103 -46 -51 -77 -90 vvcurveto
          -130 102 -84 156 95 77 29 58 65 vhcurveto
          76 -75 rlineto
          172 hlineto
          -169 167 15 23 14 24 14 27 rlinecurve
          70 123 rlineto
          -146 hlineto
          -57 -95 -2 -3 -1 -3 -2 -2 rlinecurve
          -176 174 rlineto
          -44 46 -20 30 34 vvcurveto
          34 27 25 38 37 27 -23 -45 -2 vhcurveto
          -104 -432 rmoveto
          -76 -48 47 59 51 31 42 66 29 hvcurveto
          172 -170 rlineto
          -38 -41 -47 -20 -57 hhcurveto
          endchar
        </CharString>
        <CharString name="ampersand.ss03">
          55 146 564 rmoveto
          -51 20 -45 42 -53 vhcurveto
          -97 -11 -78 -82 -115 vvcurveto
          -123 91 -92 126 88 70 48 64 33 vhcurveto
          76 -104 rlineto
          157 hlineto
          -357 479 rlineto
          -26 34 -8 20 24 vvcurveto
          33 24 27 36 38 24 -27 -36 1 vhcurveto
          1 -12 -2 -16 -4 -12 rrcurveto
          135 hlineto
          5 21 1 25 -3 22 rrcurveto
          78 -7 -66 74 -124 hhcurveto
          -127 -69 -83 -87 hvcurveto
          10 -355 rmoveto
          57 41 42 55 53 43 -42 -57 -57 -43 -44 -53 -55 -41 44 57 vhcurveto
          endchar
        </CharString>
        <CharString name="aogonek">
          42 callsubr
          140 88 63 42 48 33 vhcurveto
          -67 vlineto
          -57 -37 -20 -38 -42 -7 callsubr
          rlineto
          1 323 callsubr
          -79 hlineto
          46 -33 -61 42 -89 hhcurveto
          -141 -112 -111 -173 hvcurveto
          436 -2 rmoveto
          -105 -70 -58 -77 -75 -71 60 105 105 71 56 75 77 70 -58 -105 vhcurveto
          endchar
        </CharString>
        <CharString name="aogonek.ss02">
          -13 558 -199 rmoveto
          53 callgsubr
          rlineto
          325 vlineto
          149 -107 90 -140 -140 -95 -88 -120 -19 vhcurveto
          140 hlineto
          55 11 40 34 59 hhcurveto
          67 40 -47 -69 2 hvcurveto
          -141 hlineto
          -161 -69 -80 -95 -97 79 -67 105 81 76 39 50 30 hvcurveto
          -66 vlineto
          -56 -37 -19 -38 -41 86 callgsubr
          -382 368 rmoveto
          38 28 31 67 vhcurveto
          133 -4 hlineto
          -87 -80 -44 -66 -52 -30 26 40 vhcurveto
          endchar
        </CharString>
        <CharString name="apostrophemod.ss01">
          -427 34 819 rmoveto
          124 callgsubr
        </CharString>
        <CharString name="approxequal">
          -36 32 153 rmoveto
          45 callsubr
          235 vmoveto
          45 callsubr
          endchar
        </CharString>
        <CharString name="aring">
          -95 callgsubr
          -128 555 2 callsubr
          endchar
        </CharString>
        <CharString name="aring.ss02">
          -13 341 832 2 callsubr
          63 -667 rmoveto
          -98 callgsubr
        </CharString>
        <CharString name="asciicircum">
          52 503 167 rmoveto
          144 hlineto
          -240 533 rlineto
          -134 hlineto
          -240 -533 rlineto
          143 hlineto
          165 367 rlineto
          endchar
        </CharString>
        <CharString name="asciitilde">
          -36 32 224 rmoveto
          45 callsubr
          endchar
        </CharString>
        <CharString name="asterisk">
          -110 313 738 rmoveto
          -105 hlineto
          23 -139 -111 88 -51 -92 129 -45 -130 -47 55 -96 107 91 -22 -138 rlineto
          104 hlineto
          -23 138 108 -89 52 93 -130 47 130 47 -50 90 -110 -87 rlineto
          endchar
        </CharString>
        <CharString name="at">
          423 740 -6 rmoveto
          154 85 158 160 204 -142 140 -235 -307 -224 -227 -298 -209 147 -135 225 75 72 13 27 64 hvcurveto
          -20 92 rlineto
          -24 -51 -62 -11 -58 hhcurveto
          -179 -103 92 166 236 171 183 235 181 102 -93 -161 -95 -34 -126 -76 -45 -4 32 51 8 hvcurveto
          47 270 rlineto
          -117 hlineto
          -9 -52 rlineto
          39 -21 -39 21 -58 hhcurveto
          -143 -98 -135 -149 -104 60 -66 102 69 64 32 52 39 hvcurveto
          -52 12 42 -31 71 hhcurveto
          -122 255 rmoveto
          -81 -58 -71 -73 -55 -25 37 52 79 48 78 76 56 31 -40 -54 vhcurveto
          endchar
        </CharString>
        <CharString name="atilde">
          -95 callgsubr
          -308 330 -96 callsubr
          endchar
        </CharString>
        <CharString name="atilde.ss02">
          -13 161 607 -96 callsubr
          243 -607 rmoveto
          -98 callgsubr
        </CharString>
        <CharString name="b">
          50 209 473 rmoveto
          267 -140 -740 140 79 vlineto
          -48 34 62 -40 252 callsubr
          -84 -65 -39 -51 -34 hvcurveto
          293 -194 240 callgsubr
        </CharString>
        <CharString name="backslash">
          128 309 947 rmoveto
          -136 hlineto
          285 -1128 rlineto
          137 hlineto
          endchar
        </CharString>
        <CharString name="bar">
          84 808 rmoveto
          -929 141 929 vlineto
          endchar
        </CharString>
        <CharString name="braceleft">
          -120 207 224 rmoveto
          -69 -19 -109 -80 vvcurveto
          -106 70 -59 100 vhcurveto
          69 119 -42 hlineto
          -42 -20 18 41 hvcurveto
          62 17 110 78 vvcurveto
          69 -32 50 -73 15 vhcurveto
          2 vlineto
          73 14 32 51 68 79 -17 109 63 vvcurveto
          40 20 19 42 vhcurveto
          42 118 -69 hlineto
          -100 -70 -59 -106 hvcurveto
          -80 19 -108 -70 vvcurveto
          -49 -32 -30 -65 -6 vhcurveto
          -109 vlineto
          65 -5 32 -31 -49 vvcurveto
          endchar
        </CharString>
        <CharString name="braceright">
          -120 301 224 rmoveto
          -69 19 -109 -80 vvcurveto
          -106 -70 -59 -100 vhcurveto
          -69 119 42 hlineto
          42 20 18 41 hvcurveto
          62 -17 110 78 vvcurveto
          69 32 50 73 15 vhcurveto
          2 vlineto
          -73 14 -32 51 68 79 17 109 63 vvcurveto
          40 -20 19 -42 vhcurveto
          -42 118 69 hlineto
          100 70 -59 -106 hvcurveto
          -80 -19 -108 -70 vvcurveto
          -49 32 -30 65 -6 vhcurveto
          -109 vlineto
          -65 -5 -32 -31 -49 vvcurveto
          endchar
        </CharString>
        <CharString name="bracketleft">
          -131 135 -197 rmoveto
          251 116 -119 891 119 114 -251 hlineto
          endchar
        </CharString>
        <CharString name="bracketright">
          -132 361 -197 rmoveto
          -251 116 119 891 -119 114 251 hlineto
          endchar
        </CharString>
        <CharString name="breve">
          -289 329 752 -81 callgsubr
          endchar
        </CharString>
        <CharString name="brokenbar">
          -278 105 278 rmoveto
          -399 140 399 vlineto
          131 vmoveto
          399 -140 -399 vlineto
          endchar
        </CharString>
        <CharString name="bullet">
          -148 239 194 rmoveto
          79 62 61 78 79 -62 61 -79 -77 -62 -61 -79 -78 62 -61 77 hvcurveto
          endchar
        </CharString>
        <CharString name="c">
          -52 callgsubr
          endchar
        </CharString>
        <CharString name="cacute">
          -52 callgsubr
          146 416 -67 callgsubr
          endchar
        </CharString>
        <CharString name="caron">
          -311 159 690 -61 callgsubr
        </CharString>
        <CharString name="ccaron">
          -52 callgsubr
          267 413 -61 callgsubr
        </CharString>
        <CharString name="ccedilla">
          -26 33 277 rmoveto
          -157 93 -106 135 -20 vhcurveto
          -115 62 vlineto
          -19 callgsubr
          39 vlineto
          115 14 77 73 27 106 rrcurveto
          -151 hlineto
          -50 -17 -36 -26 -58 hhcurveto
          -78 -52 58 108 108 52 59 78 58 37 -30 -47 16 hvcurveto
          151 hlineto
          124 -30 -93 72 -138 hhcurveto
          -160 -114 -112 -174 hvcurveto
          endchar
        </CharString>
        <CharString name="cdotaccent">
          -52 callgsubr
          266 343 rmoveto
          -101 callgsubr
          endchar
        </CharString>
        <CharString name="cedilla">
          -333 155 7 rmoveto
          -88 -126 62 hlineto
          -19 callgsubr
          endchar
        </CharString>
        <CharString name="cent">
          35 564 182 rmoveto
          -130 hlineto
          -44 -13 -37 -27 -62 hhcurveto
          -82 -52 55 92 92 52 55 82 62 36 -27 -44 14 hvcurveto
          130 hlineto
          -10 102 -85 71 -117 11 rrcurveto
          85 -64 -85 vlineto
          -152 -14 -81 -105 -141 vvcurveto
          -141 81 -105 152 -14 vhcurveto
          -85 64 85 vlineto
          117 11 85 71 10 102 rrcurveto
          endchar
        </CharString>
        <CharString name="circumflex">
          -311 307 695 -66 callsubr
          endchar
        </CharString>
        <CharString name="colon">
          -365 216 75 -3 callgsubr
          414 vmoveto
          162 callgsubr
        </CharString>
        <CharString name="colon.ss01">
          -336 68 hmoveto
          159 callgsubr
          260 vmoveto
          159 callgsubr
          endchar
        </CharString>
        <CharString name="comma">
          -373 12 -144 157 callgsubr
          endchar
        </CharString>
        <CharString name="comma.ss01">
          -403 30 204 callgsubr
          endchar
        </CharString>
        <CharString name="copyright">
          157 42 350 rmoveto
          -210 143 -148 208 207 143 148 210 210 -143 148 -207 -208 -143 -148 -210 vhcurveto
          646 hmoveto
          -184 -114 -124 -181 -182 -114 124 184 187 114 120 182 181 114 -120 -187 vhcurveto
          -90 73 rmoveto
          -123 hlineto
          37 -12 -31 21 -43 hhcurveto
          -59 -40 -43 -87 -87 40 -44 59 48 24 23 35 14 hvcurveto
          123 hlineto
          -92 -23 -79 -63 -104 hhcurveto
          -126 -94 89 139 139 94 88 126 104 79 -58 -97 23 hvcurveto
          endchar
        </CharString>
        <CharString name="currency">
          -67 364 377 rmoveto
          -64 -41 -31 -43 -44 -38 31 64 64 39 32 44 43 40 -32 -64 vhcurveto
          80 -219 rmoveto
          57 58 -56 56 rlineto
          21 29 12 35 41 vvcurveto
          42 -12 37 -21 28 vhcurveto
          56 57 -57 58 -64 -64 rlineto
          14 -28 -34 7 -37 hhcurveto
          -37 -34 -7 -14 -28 hvcurveto
          -64 64 -58 -58 58 -58 rlineto
          -20 -28 -12 -36 -42 vvcurveto
          -41 11 -35 20 -28 vhcurveto
          -57 -57 58 -58 62 62 rlineto
          -14 28 34 -8 38 hhcurveto
          38 34 8 14 29 hvcurveto
          endchar
        </CharString>
        <CharString name="d">
          42 callsubr
          141 87 62 40 51 33 vhcurveto
          -82 142 740 -142 -263 45 callgsubr
        </CharString>
        <CharString name="dagger">
          -11 364 543 rmoveto
          14 243 rlineto
          -140 hlineto
          14 -243 -203 11 rlineto
          -108 vlineto
          203 12 -14 -722 278 callgsubr
          -14 722 203 -12 rlineto
          108 vlineto
          endchar
        </CharString>
        <CharString name="daggerdbl">
          -11 567 554 rmoveto
          -203 -11 14 243 rlineto
          -140 hlineto
          14 -243 336 callgsubr
          rlineto
          -393 vlineto
          336 callgsubr
          -14 -244 278 callgsubr
          -14 244 203 -12 rlineto
          108 vlineto
          -203 -11 rlineto
          393 vlineto
          203 -12 rlineto
          endchar
        </CharString>
        <CharString name="danda">
          -308 279 269 callsubr
          endchar
        </CharString>
        <CharString name="dcaron">
          178 663 740 rmoveto
          -109 57 -19 vlineto
          -40 -16 -20 -34 vhcurveto
          -57 vlineto
          85 41 51 86 33 -6 36 -11 39 hvcurveto
          -746 -461 67 callgsubr
          141 87 62 40 51 33 vhcurveto
          -82 142 740 -142 -263 45 callgsubr
        </CharString>
        <CharString name="dcroat">
          56 86 callsubr
          141 87 62 40 51 33 vhcurveto
          -82 142 590 60 74 -60 76 -142 -76 -76 -74 76 -113 45 callgsubr
        </CharString>
        <CharString name="degree">
          -184 27 527 rmoveto
          -110 80 -70 114 114 82 70 110 110 -81 68 -113 -115 -81 -68 -110 vhcurveto
          280 -1 rmoveto
          -68 -43 -32 -43 -44 -41 32 68 69 42 33 43 44 42 -33 -69 vhcurveto
          endchar
        </CharString>
        <CharString name="dieresis">
          -290 76 620 rmoveto
          -101 callgsubr
          185 hmoveto
          -101 callgsubr
          endchar
        </CharString>
        <CharString name="divide">
          20 73 296 rmoveto
          510 122 -510 hlineto
          343 -281 -3 callgsubr
          441 vmoveto
          162 callgsubr
        </CharString>
        <CharString name="divide.ss01">
          20 73 294 rmoveto
          510 125 -510 hlineto
          179 -357 rmoveto
          329 callgsubr
          284 vmoveto
          329 callgsubr
          endchar
        </CharString>
        <CharString name="dollar">
          26 277 -87 rmoveto
          64 81 hlineto
          146 10 80 95 102 vvcurveto
          148 -122 27 -104 27 vhcurveto
          189 vlineto
          39 -12 24 -30 4 -39 rrcurveto
          151 hlineto
          -9 119 -84 67 -125 10 rrcurveto
          81 -64 -81 vlineto
          -130 -10 -94 -77 -118 vvcurveto
          -148 121 -29 103 -26 vhcurveto
          -191 vlineto
          -46 10 -24 31 -4 46 rrcurveto
          -150 hlineto
          3 -120 92 -69 129 -11 rrcurveto
          145 200 rmoveto
          -45 -30 -35 -51 -9 vhcurveto
          175 vlineto
          47 -16 34 -23 -47 vvcurveto
          -223 314 rmoveto
          51 32 28 46 7 vhcurveto
          -173 vlineto
          -46 16 -32 24 47 vvcurveto
          endchar
        </CharString>
        <CharString name="dotaccent">
          -475 76 620 rmoveto
          -101 callgsubr
          endchar
        </CharString>
        <CharString name="dotlessi">
          108 callgsubr
          endchar
        </CharString>
        <CharString name="dottedcircle">
          23 557 409 -46 callgsubr
          -376 -286 -46 callgsubr
          98 -76 -46 callgsubr
          -143 189 -46 callgsubr
          267 -203 -46 callgsubr
          -252 324 -46 callgsubr
          367 -278 -46 callgsubr
          -291 377 -46 callgsubr
          364 -281 -46 callgsubr
          -247 323 -46 callgsubr
          257 -203 -46 callgsubr
          -136 188 -46 callgsubr
          endchar
        </CharString>
        <CharString name="doubledanda">
          -58 279 269 callsubr
          248 269 callsubr
          endchar
        </CharString>
        <CharString name="dvA">
          207 273 465 rmoveto
          -59 callgsubr
          -67 callsubr
          -240 -346 -186 vlineto
          -60 callsubr
          endchar
        </CharString>
        <CharString name="dvAA">
          511 273 465 rmoveto
          -59 callgsubr
          129 295 callsubr
          -550 -346 -186 vlineto
          -60 callsubr
          endchar
        </CharString>
        <CharString name="dvAI">
          24 340 19 rmoveto
          144 92 83 144 hvcurveto
          42 callgsubr
          -103 84 callgsubr
          -468 -108 219 callsubr
          vhcurveto
          endchar
        </CharString>
        <CharString name="dvAU">
          242 callsubr
          -120 vlineto
          306 -157 -34 14 -144 31 callgsubr
          -318 -346 -186 hlineto
          -60 callsubr
          -59 callgsubr
          vlineto
          endchar
        </CharString>
        <CharString name="dvAbbreviationsign">
          -146 243 506 rmoveto
          -100 -71 -68 -97 -96 71 -69 100 99 69 68 96 98 -69 68 -99 hvcurveto
          -77 vmoveto
          51 37 -38 -51 -51 -37 -36 -51 -53 -39 36 52 51 39 37 53 hvcurveto
          endchar
        </CharString>
        <CharString name="dvAcandra">
          210 273 465 rmoveto
          -59 callgsubr
          -67 callsubr
          -240 -346 -186 vlineto
          -60 callsubr
          415 365 -8 callsubr
        </CharString>
        <CharString name="dvAnusvara">
          -628 -156 822 -12 callsubr
        </CharString>
        <CharString name="dvAnusvara.amI">
          -628 129 822 -12 callsubr
        </CharString>
        <CharString name="dvAvagraha">
          -39 64 52 rmoveto
          267 hlineto
          101 63 55 83 hvcurveto
          170 -238 68 90 vvcurveto
          38 30 7 32 vhcurveto
          186 109 -218 hlineto
          -92 -70 -41 -93 hvcurveto
          -172 239 -67 -90 vvcurveto
          -28 -22 -20 -43 vhcurveto
          -235 hlineto
          endchar
        </CharString>
        <CharString name="dvB">
          -231 320 70 rmoveto
          169 88 113 132 119 -81 119 -177 -44 callsubr
          hvcurveto
          3 394 rmoveto
          -84 callsubr
          -344 168 305 callgsubr
          344 -580 rmoveto
          -83 callgsubr
          endchar
        </CharString>
        <CharString name="dvBA">
          61 474 hmoveto
          125 -70 callgsubr
          -730 -108 495 283 callsubr
          -138 -104 -96 -142 127 callsubr
          hvcurveto
          -146 316 -23 callsubr
        </CharString>
        <CharString name="dvBH">
          -99 -38 callgsubr
          200 105 -200 5 callgsubr
        </CharString>
        <CharString name="dvBHA">
          203 -38 callgsubr
          139 -355 129 632 112 108 -241 -280 -139 5 callgsubr
        </CharString>
        <CharString name="dvBH_LA">
          812 -38 callgsubr
          123 vlineto
          -4 -19 -2 -20 -21 vvcurveto
          160 callgsubr
          164 9 11 1 1 14 vhcurveto
          110 callgsubr
          -9 -12 -1 -7 hhcurveto
          -79 -47 -74 callsubr
          107 299 callgsubr
          -79 -7 -10 1 1 -11 vhcurveto
          -113 vlineto
          -1 14 12 -1 8 hhcurveto
          -43 callgsubr
          214 108 -886 -108 546 -105 vlineto
          -74 -15 -40 -51 -19 -55 rrcurveto
          -4 hlineto
          64 -22 -52 61 -100 hhcurveto
          -66 -59 -24 -47 -41 hvcurveto
          -172 60 hlineto
          12 callgsubr
        </CharString>
        <CharString name="dvBH_NA">
          717 -38 callgsubr
          125 vlineto
          -5 -19 -3 -20 -23 vvcurveto
          -129 99 271 callgsubr
          91 67 122 -14 callgsubr
          vhcurveto
          214 callgsubr
          -67 callsubr
          -776 -108 536 240 callsubr
          hlineto
          -54 -50 -13 -26 -39 hvcurveto
          -201 60 hlineto
          -80 callsubr
          538 120 rmoveto
          -61 -41 40 57 58 42 40 60 208 callgsubr
        </CharString>
        <CharString name="dvBH_R">
          -99 134 callgsubr
          1 -107 rmoveto
          128 72 87 132 hvcurveto
          46 204 103 -204 55 vlineto
          61 callsubr
          -78 -76 vlineto
          -119 -95 -61 -123 -111 83 -73 123 hvcurveto
          2 -180 rmoveto
          142 hlineto
          260 262 rlineto
          117 vlineto
          endchar
        </CharString>
        <CharString name="dvBH_RA">
          203 134 callgsubr
          1 -107 rmoveto
          128 72 87 132 hvcurveto
          46 168 -98 vlineto
          -366 -347 rlineto
          142 hlineto
          230 231 rlineto
          -148 117 213 callsubr
          -235 -275 -168 55 vlineto
          61 callsubr
          -78 -76 vlineto
          -119 -95 -61 -123 -111 83 -73 123 hvcurveto
          endchar
        </CharString>
        <CharString name="dvBH_R_YA">
          639 134 callgsubr
          606 -3 8 callsubr
          -605 -104 rmoveto
          128 72 87 132 hvcurveto
          46 108 vlineto
          2 -49 9 -43 17 -37 -334 -316 rcurveline
          142 hlineto
          245 242 rlineto
          -42 45 63 -24 79 -4 callgsubr
          -152 60 hlineto
          61 callsubr
          -83 -76 vlineto
          -119 -95 -59 -120 -111 83 -73 123 hvcurveto
          endchar
        </CharString>
        <CharString name="dvBH_VA">
          569 -38 callgsubr
          118 207 callgsubr
          57 32 51 163 callsubr
          -169 vlineto
          51 307 callgsubr
          -80 -63 -32 -54 -39 hvcurveto
          -159 60 hlineto
          -80 callsubr
          115 callsubr
        </CharString>
        <CharString name="dvBH_YA">
          639 -38 callgsubr
          105 vlineto
          -160 8 96 -102 164 -4 callgsubr
          -149 60 hlineto
          -80 callsubr
          604 125 8 callsubr
          endchar
        </CharString>
        <CharString name="dvB_BA">
          477 323 122 callgsubr
          568 -464 rmoveto
          124 -70 callgsubr
          -1146 -108 912 -159 hlineto
          46 -36 -59 33 -78 hhcurveto
          -80 -69 -32 -56 -43 hvcurveto
          53 -41 -68 36 -98 hhcurveto
          -44 callsubr
          95 69 36 55 43 hvcurveto
          -57 43 69 -33 80 hhcurveto
          80 60 33 48 32 hvcurveto
          -568 8 rmoveto
          -83 callgsubr
          423 4 rmoveto
          -85 -72 56 94 28 7 26 11 21 hvcurveto
          239 -190 rlineto
          -22 -25 -33 -13 -42 hhcurveto
          -2 303 rmoveto
          100 249 callgsubr
          -26 -12 -22 158 callsubr
          28 35 12 38 hhcurveto
          endchar
        </CharString>
        <CharString name="dvB_BHA">
          613 678 185 rmoveto
          -49 -36 32 53 54 41 31 56 hvcurveto
          71 -66 hlineto
          -63 -28 -41 -55 vhcurveto
          2 -109 rmoveto
          132 70 284 callgsubr
          130 632 111 130 callgsubr
          -25 -21 324 callsubr
          -644 -108 639 1 hlineto
          46 -1 rlineto
          4 9 9 3 11 hhcurveto
          48 20 -39 -57 hvcurveto
          -83 -75 vlineto
          -51 -47 -12 -24 -36 hvcurveto
          73 -36 -76 56 -121 hhcurveto
          -44 callsubr
          87 65 30 46 43 hvcurveto
          -44 35 57 -26 73 hhcurveto
          -357 388 rmoveto
          -84 callsubr
          -304 vmoveto
          -83 callgsubr
          endchar
        </CharString>
        <CharString name="dvB_BH_RA">
          634 323 122 callgsubr
          -304 vmoveto
          -83 callgsubr
          355 44 rmoveto
          -48 -36 29 48 51 39 30 55 hvcurveto
          76 -54 hlineto
          -64 -28 -40 -58 vhcurveto
          378 -204 rmoveto
          116 -100 callsubr
          -235 -275 -166 55 hlineto
          130 -51 99 -142 -25 -23 324 callsubr
          -643 -108 683 hlineto
          5 9 9 2 13 hhcurveto
          50 21 -38 -58 hvcurveto
          -78 -76 vlineto
          -53 -49 -12 -25 -37 hvcurveto
          71 -36 -75 54 -119 hhcurveto
          -44 callsubr
          92 68 34 52 43 hvcurveto
          -38 36 55 -21 67 hhcurveto
          127 74 87 132 hvcurveto
          46 166 -98 vlineto
          -365 -347 rlineto
          141 hlineto
          232 233 rlineto
          endchar
        </CharString>
        <CharString name="dvB_DA">
          400 958 -27 rmoveto
          -76 callsubr
          hlineto
          1 108 rlineto
          -1070 -108 814 -91 -50 hlineto
          -88 -76 -28 -53 -49 hvcurveto
          55 -41 -69 38 -101 hhcurveto
          -44 callsubr
          92 67 33 52 43 hvcurveto
          -51 40 62 -26 68 hhcurveto
          61 50 22 38 29 hvcurveto
          -165 vlineto
          -509 187 -66 callgsubr
        </CharString>
        <CharString name="dvB_DHA">
          488 201 callsubr
          371 -74 rmoveto
          97 74 37 63 42 hvcurveto
          -185 38 callgsubr
          -72 -51 28 58 51 41 31 72 vhcurveto
          -96 callgsubr
          -22 272 callgsubr
          -607 -108 497 107 callsubr
          -48 -10 -54 -37 -13 -68 rrcurveto
          -1 hlineto
          -3 -20 -6 -20 -10 -18 -240 194 rcurveline
          24 28 38 14 41 hhcurveto
          24 17 -3 -5 19 hvcurveto
          86 vlineto
          7 -24 -26 2 -22 hhcurveto
          -146 -107 -97 -146 -155 121 -86 137 83 69 32 56 42 hvcurveto
          -48 40 68 -25 78 hhcurveto
          endchar
        </CharString>
        <CharString name="dvB_DH_VA">
          896 201 callsubr
          1108 473 rmoveto
          313 callgsubr
          hlineto
          -52 callsubr
          -22 272 callgsubr
          -607 -108 497 107 callsubr
          -48 -10 -54 -37 -13 -68 rrcurveto
          -1 hlineto
          -3 -20 -6 -20 -10 -18 -240 194 rcurveline
          24 28 38 14 41 hhcurveto
          24 17 -3 -5 19 hvcurveto
          86 vlineto
          7 -24 -26 2 -22 hhcurveto
          -146 -107 -97 -146 -155 121 -86 137 83 68 32 56 43 hvcurveto
          -50 41 74 -24 88 hhcurveto
          320 callgsubr
          hvcurveto
          153 callgsubr
          127 vlineto
          -260 63 callgsubr
        </CharString>
        <CharString name="dvB_JA">
          618 323 122 callsubr
          833 -160 -40 callgsubr
          -1288 -108 1048 -140 -270 -162 vlineto
          12 callsubr
          55 144 -382 vlineto
          -704 122 callgsubr
          endchar
        </CharString>
        <CharString name="dvB_JHA">
          707 323 160 rmoveto
          -83 -73 56 95 29 6 25 11 22 hvcurveto
          240 -192 rlineto
          -22 -25 -34 -13 -42 hhcurveto
          373 169 rmoveto
          -44 -35 16 43 49 45 12 42 hvcurveto
          219 183 195 -303 hlineto
          -329 vmoveto
          127 -70 callgsubr
          -1376 -108 820 -90 -126 hlineto
          -96 -87 -43 -110 hvcurveto
          -34 vlineto
          -42 -10 -42 -20 -34 vhcurveto
          -241 193 rlineto
          23 28 37 13 41 hhcurveto
          30 24 -5 -7 23 hvcurveto
          88 vlineto
          7 -26 -27 4 -30 hhcurveto
          -44 callsubr
          136 79 84 110 25 hvcurveto
          29 -17 36 -8 34 -1 rrcurveto
          112 hlineto
          72 35 -32 -50 -39 -26 -34 -62 -67 -38 38 49 -6 hvcurveto
          -110 -251 117 131 hlineto
          -20 16 43 -42 85 hhcurveto
          110 57 66 86 38 -10 31 -17 23 hvcurveto
          148 hlineto
          endchar
        </CharString>
        <CharString name="dvB_J_YA">
          1073 1307 201 rmoveto
          -105 -60 67 99 -2 hvcurveto
          113 14 61 68 106 174 callgsubr
          -105 vhcurveto
          -984 263 rmoveto
          -84 callsubr
          -304 vmoveto
          -83 callgsubr
          1288 -160 145 callgsubr
          -1742 -108 1208 -54 vlineto
          -83 -46 -40 -113 vhcurveto
          -271 -125 hlineto
          12 callsubr
          21 131 vlineto
          -156 16 94 -99 157 hhcurveto
          93 67 34 51 40 hvcurveto
          -178 vlineto
          endchar
        </CharString>
        <CharString name="dvB_JxA">
          623 1156 109 callsubr
          -1288 -108 1048 -140 -270 -162 vlineto
          12 callsubr
          55 144 -382 vlineto
          -356 -109 rmoveto
          -98 callsubr
          -348 269 -66 callgsubr
        </CharString>
        <CharString name="dvB_LA">
          683 1001 44 rmoveto
          92 callsubr
          75 -78 30 hvcurveto
          116 212 108 -1352 -108 1012 -105 vlineto
          -74 -15 -40 -51 -19 -55 rrcurveto
          39 callgsubr
          80 32 63 74 69 36 -54 -71 -82 -48 -54 -79 -6 -11 1 1 -10 174 callsubr
          -678 116 -66 callgsubr
        </CharString>
        <CharString name="dvB_L_YA">
          1174 323 122 callsubr
          1085 41 rmoveto
          -107 -61 63 90 -12 callgsubr
          303 308 callgsubr
          111 108 -1843 -108 1309 -63 vlineto
          -74 -27 -46 -61 -18 vhcurveto
          63 -32 -61 37 -72 hhcurveto
          -103 -52 -60 -65 -22 hvcurveto
          39 callgsubr
          81 32 62 77 55 28 -35 -32 10 vhcurveto
          -157 6 97 -101 166 143 callsubr
          vlineto
          -1259 122 callgsubr
          endchar
        </CharString>
        <CharString name="dvB_NA">
          603 694 196 -102 callgsubr
          447 -196 -40 callgsubr
          -1273 -108 1033 208 callsubr
          -64 -58 -18 -36 -41 hvcurveto
          63 -39 -73 45 -109 hhcurveto
          -44 callsubr
          93 69 34 53 42 hvcurveto
          -45 40 61 -25 67 249 callsubr
          -689 160 -66 callgsubr
        </CharString>
        <CharString name="dvB_R">
          -231 -21 632 305 callgsubr
          341 -670 rmoveto
          2 3 0 2 hhcurveto
          -127 -129 rlineto
          131 hlineto
          176 197 rlineto
          46 45 24 64 68 vvcurveto
          119 -81 119 -177 -44 callsubr
          vhcurveto
          3 394 rmoveto
          -84 callsubr
          -304 vmoveto
          -83 callgsubr
          endchar
        </CharString>
        <CharString name="dvB_RA">
          60 458 133 254 callsubr
          -729 -108 495 -158 vlineto
          197 callsubr
          -138 -104 -96 -142 -136 95 -90 128 -9 hvcurveto
          -136 -138 rlineto
          137 hlineto
          45 526 -23 callsubr
        </CharString>
        <CharString name="dvB_SA">
          603 323 122 callgsubr
          -304 vmoveto
          -83 callgsubr
          517 396 rmoveto
          76 171 -208 332 callsubr
          -368 rmoveto
          216 callsubr
          -319 -67 callsubr
          -1272 -108 732 -76 vlineto
          -86 -43 -59 -110 vhcurveto
          80 -33 -78 62 -128 hhcurveto
          -44 callsubr
          76 59 23 37 43 hvcurveto
          -83 24 65 -56 103 hhcurveto
          -30 callgsubr
          hvcurveto
          endchar
        </CharString>
        <CharString name="dvB_SHA">
          613 706 -8 rmoveto
          130 83 79 132 hvcurveto
          16 -127 -14 vlineto
          -60 -32 -41 -57 -70 -27 257 callgsubr
          118 74 157 141 -90 78 -132 -25 -23 -3 -6 -20 hvcurveto
          -661 -108 697 hlineto
          4 10 10 1 12 hhcurveto
          57 34 -39 -60 -95 -86 -35 -94 hvcurveto
          -60 hlineto
          81 -32 -78 64 -130 hhcurveto
          -44 callsubr
          77 61 24 38 42 hvcurveto
          -87 28 72 -53 106 hhcurveto
          -383 472 rmoveto
          -84 callsubr
          -304 vmoveto
          -83 callgsubr
          696 -160 rmoveto
          132 632 110 339 callsubr
        </CharString>
        <CharString name="dvB_TA">
          487 1026 286 callsubr
          -1157 -108 917 271 callsubr
          -83 -73 -20 -43 -52 hvcurveto
          70 -37 -76 52 -117 hhcurveto
          -44 callsubr
          75 59 22 36 42 hvcurveto
          -86 41 88 -40 107 hhcurveto
          173 callgsubr
          hlineto
          -573 160 -66 callgsubr
        </CharString>
        <CharString name="dvB_VA">
          459 736 178 -83 callsubr
          -1128 -108 892 -15 callsubr
          -76 -61 -30 -50 -40 hvcurveto
          52 -42 -68 35 -96 hhcurveto
          -44 callsubr
          93 68 34 53 43 hvcurveto
          -51 39 62 -31 77 hhcurveto
          77 58 32 51 34 hvcurveto
          -158 214 callsubr
          vlineto
          -674 -168 rmoveto
          -84 callsubr
          -304 vmoveto
          -83 callgsubr
          endchar
        </CharString>
        <CharString name="dvB_YA">
          519 769 201 151 callgsubr
          -1204 -108 670 -54 vlineto
          -80 -31 -47 -72 -15 vhcurveto
          67 -38 -75 50 -114 hhcurveto
          -44 callsubr
          104 73 42 64 41 hvcurveto
          -53 45 70 -30 89 15 callsubr
          vlineto
          -620 160 -66 callgsubr
        </CharString>
        <CharString name="dvC">
          -181 50 416 rmoveto
          150 hlineto
          -40 -31 -22 -47 -55 vvcurveto
          -129 100 -66 133 168 102 112 161 -3 vhcurveto
          217 callgsubr
          -71 114 rmoveto
          659 108 -659 hlineto
          endchar
        </CharString>
        <CharString name="dvCA">
          118 113 callsubr
          548 -271 236 callgsubr
          -102 150 hlineto
          -40 -31 -22 -47 -55 vvcurveto
          -123 92 -71 116 78 65 32 55 38 vhcurveto
          -176 -67 callsubr
          -788 vlineto
          endchar
        </CharString>
        <CharString name="dvCH">
          193 -21 632 75 callsubr
          58 callsubr
        </CharString>
        <CharString name="dvCHA">
          193 -21 632 75 callsubr
          111 -54 70 -81 22 vhcurveto
          97 200 108 -863 vlineto
          422 -607 -79 callsubr
          endchar
        </CharString>
        <CharString name="dvCH_R">
          72 callsubr
          58 callsubr
        </CharString>
        <CharString name="dvCH_RA">
          72 callsubr
          111 -54 70 -81 22 vhcurveto
          97 200 108 -863 vlineto
          422 -607 -79 callsubr
          endchar
        </CharString>
        <CharString name="dvCH_R_YA">
          4 callgsubr
          -432 -313 rmoveto
          133 hlineto
          -129 150 97 23 71 52 39 74 rlinecurve
          -60 46 71 -34 94 hhcurveto
          85 62 33 48 37 hvcurveto
          -174 130 -70 callgsubr
          -1393 -108 105 -84 vlineto
          71 callsubr
          rlineto
          endchar
        </CharString>
        <CharString name="dvCH_YA">
          4 callgsubr
          414 223 callsubr
          -1393 -108 105 -84 vlineto
          57 callsubr
          -148 138 -73 196 164 118 60 104 55 vhcurveto
          -60 46 71 -34 94 hhcurveto
          85 62 33 48 37 hvcurveto
          -174 298 callgsubr
          vlineto
          endchar
        </CharString>
        <CharString name="dvC_CA">
          495 379 196 rmoveto
          -65 -54 38 71 66 48 45 70 hvcurveto
          199 hlineto
          -32 -25 -21 -35 -7 -42 rrcurveto
          -66 -19 -45 -52 -74 hhcurveto
          765 436 rmoveto
          108 -1165 -108 925 -271 vlineto
          123 callgsubr
          -744 -102 150 hlineto
          -40 -31 -22 -47 -55 vvcurveto
          -129 93 -66 124 86 58 38 60 40 vhcurveto
          -63 34 69 -34 81 hhcurveto
          78 65 32 55 38 hvcurveto
          -176 200 callgsubr
          vlineto
          endchar
        </CharString>
        <CharString name="dvC_CHA">
          637 845 133 -26 callsubr
          rrcurveto
          -88 46 116 -44 152 hhcurveto
          188 callsubr
          hvcurveto
          endchar
        </CharString>
        <CharString name="dvC_CH_VA">
          637 841 -205 rmoveto
          -67 -47 45 68 66 44 47 78 2 hvcurveto
          0 vlineto
          35 38 3 7 34 hvcurveto
          -127 vlineto
          -55 -38 -56 -77 vhcurveto
          4 338 -26 callsubr
          28 -53 53 -37 71 -21 rrcurveto
          -48 -34 -28 -56 -65 vvcurveto
          -110 78 -83 125 66 50 26 43 31 vhcurveto
          -124 116 433 vlineto
          95 52 54 90 116 vvcurveto
          endchar
        </CharString>
        <CharString name="dvC_MA">
          655 1063 460 38 callsubr
          -354 -447 rmoveto
          -92 callsubr
          595 447 rmoveto
          108 -1325 -108 815 -172 -76 vlineto
          -104 -86 -49 -98 -19 hvcurveto
          0 vlineto
          -67 -14 -44 -50 -76 hhcurveto
          -65 -50 39 70 10 callgsubr
          -126 95 -69 125 77 59 28 48 39 vhcurveto
          -55 34 63 -33 81 47 callsubr
          vlineto
          endchar
        </CharString>
        <CharString name="dvC_NA">
          648 725 196 -102 callgsubr
          558 436 rmoveto
          108 -1304 -108 1064 208 callsubr
          -122 -98 -65 -128 -7 hvcurveto
          -12 -61 -44 -46 -72 -1 rrcurveto
          -65 -54 37 70 10 callgsubr
          -127 101 -67 127 77 61 31 53 39 vhcurveto
          -55 39 67 -31 74 -6 callgsubr
          hlineto
          endchar
        </CharString>
        <CharString name="dvC_R">
          -181 113 callsubr
          659 108 -659 hlineto
          71 -324 rmoveto
          150 hlineto
          -40 -31 -22 -47 -55 vvcurveto
          -128 99 -66 132 -1 vhcurveto
          -127 -134 rlineto
          139 hlineto
          171 195 57 48 31 75 -2 89 rlinecurve
          217 callgsubr
          endchar
        </CharString>
        <CharString name="dvC_RA">
          118 113 callsubr
          548 -271 236 callgsubr
          -102 150 hlineto
          -40 -31 -22 -47 -55 vvcurveto
          -111 78 -66 103 -10 vhcurveto
          -135 -142 278 callgsubr
          170 191 13 10 11 12 9 13 rlinecurve
          -180 -67 callsubr
          -788 vlineto
          endchar
        </CharString>
        <CharString name="dvC_YA">
          588 823 201 13 callsubr
          -1258 -108 723 326 callgsubr
          -13 -2 -14 -1 -13 rrcurveto
          0 vlineto
          -1 -136 -61 -58 -84 -1 rrcurveto
          -68 -53 38 71 10 callgsubr
          -129 97 -66 134 90 72 37 74 43 vhcurveto
          -67 45 75 -39 102 73 callgsubr
        </CharString>
        <CharString name="dvCandrabindu">
          -628 -161 814 16 callsubr
        </CharString>
        <CharString name="dvD">
          -18 540 -306 -50 callsubr
          -435 724 -9 callgsubr
          endchar
        </CharString>
        <CharString name="dvDA">
          -17 -21 632 -9 callgsubr
          endchar
        </CharString>
        <CharString name="dvDA_mvR">
          -33 313 -9 rmoveto
          152 101 73 148 1 hvcurveto
          -108 hlineto
          -80 -55 -44 -82 -70 -43 28 50 48 40 22 54 vhcurveto
          48 95 -43 hlineto
          -60 -41 21 43 50 45 14 54 hvcurveto
          188 173 128 108 -643 -108 391 -83 -116 hlineto
          -97 -81 -39 -100 -72 59 -44 57 -11 hvcurveto
          -3 vlineto
          -58 -10 -58 -40 -77 vvcurveto
          -109 103 -53 134 vhcurveto
          endchar
        </CharString>
        <CharString name="dvDD">
          -59 368 -298 -50 callsubr
          -263 716 -33 callgsubr
          endchar
        </CharString>
        <CharString name="dvDDA">
          -59 -21 632 -33 callgsubr
          endchar
        </CharString>
        <CharString name="dvDDH">
          22 412 -282 -50 callsubr
          -307 700 rmoveto
          -61 callsubr
          108 174 170 108 -691 hlineto
          endchar
        </CharString>
        <CharString name="dvDDHA">
          22 113 callsubr
          -61 callsubr
          108 174 170 108 -691 hlineto
          endchar
        </CharString>
        <CharString name="dvDDH_DDHA">
          46 113 callsubr
          401 -75 -42 hlineto
          -151 -114 -82 -153 -96 48 -69 77 -40 hvcurveto
          -76 -36 -49 -67 -97 vvcurveto
          -155 129 -84 168 163 89 67 107 87 -64 61 -107 -95 -62 -44 313 callsubr
          7 5 vvcurveto
          32 26 22 41 46 25 -27 -37 -55 -59 -32 -87 -119 -62 62 91 107 85 53 104 145 97 67 107 87 -60 61 -110 -95 -63 264 callsubr
          26 22 41 46 25 -26 -38 -55 -59 -33 -87 332 callgsubr
          116 157 204 108 -716 hlineto
          endchar
        </CharString>
        <CharString name="dvDDH_R">
          22 419 -374 -50 callsubr
          -314 792 -1 callsubr
        </CharString>
        <CharString name="dvDDH_RA">
          22 -21 632 -1 callsubr
        </CharString>
        <CharString name="dvDDH_VA">
          24 113 callsubr
          397 -75 -38 hlineto
          -151 -114 -82 -153 -98 47 -71 73 -39 hvcurveto
          -59 -30 -37 -57 -74 vvcurveto
          -109 76 -79 121 65 49 26 44 29 vhcurveto
          -148 108 436 vlineto
          44 30 24 45 55 vvcurveto
          86 -59 60 -104 -94 -62 264 callsubr
          25 22 40 40 24 -26 -37 -55 -55 -34 -82 332 callgsubr
          112 157 185 108 -693 hlineto
          346 -876 rmoveto
          -62 -45 40 63 76 59 34 91 25 23 2 3 21 hvcurveto
          -105 vlineto
          -55 -36 -58 -76 vhcurveto
          endchar
        </CharString>
        <CharString name="dvDDH_YA">
          674 1086 hmoveto
          127 289 callgsubr
          -1343 -108 -61 callsubr
          346 hlineto
          45 56 -10 -60 -46 -43 -18 -60 2 hvcurveto
          -38 hlineto
          -1 -8 0 -10 -8 vvcurveto
          -160 95 -78 128 82 52 32 49 32 vhcurveto
          -141 16 rmoveto
          -82 -39 49 63 -5 hvcurveto
          84 6 60 38 81 vvcurveto
          102 -76 46 -135 vhcurveto
          -252 88 586 -312 hlineto
          -101 -57 -60 -84 vhcurveto
          endchar
        </CharString>
        <CharString name="dvDDHxA">
          22 113 callsubr
          -61 callsubr
          108 174 170 108 -691 hlineto
          373 -962 rmoveto
          -98 callsubr
          endchar
        </CharString>
        <CharString name="dvDD_DDA">
          -46 113 callsubr
          371 -79 -89 hlineto
          -97 -80 -40 -94 -101 87 -31 122 61 58 -8 -58 -41 -31 -26 -64 -79 -44 36 47 -2 hvcurveto
          -123 hlineto
          -55 34 -43 51 -25 vhcurveto
          -43 -19 -27 -33 -49 vvcurveto
          -98 88 -28 122 63 55 -8 -60 -42 -31 -25 -64 -79 -44 35 50 -2 vhcurveto
          -123 hlineto
          -111 5 105 -58 139 hhcurveto
          138 77 56 96 117 -89 31 -135 -59 -46 4 44 37 33 15 69 146 81 56 96 116 -90 31 -130 -60 -42 6 42 44 41 9 39 hvcurveto
          179 164 133 108 -624 hlineto
          endchar
        </CharString>
        <CharString name="dvDD_DDHA">
          -35 -14 632 rmoveto
          362 -79 -89 hlineto
          -97 -79 -40 -94 -101 86 -31 123 60 58 -8 -58 -41 -32 -26 -63 -78 -44 36 47 -3 hvcurveto
          -123 hlineto
          -59 40 -45 56 -24 vhcurveto
          -76 -32 -49 -66 -99 vvcurveto
          -155 125 -80 161 154 84 68 106 87 -62 61 -105 -92 -61 -44 -78 -10 2 -12 2 -11 vhcurveto
          85 hlineto
          -2 5 -1 6 5 vvcurveto
          33 25 21 38 43 24 -27 -38 -55 -56 -32 -81 -115 -59 60 86 103 79 50 98 6 vhcurveto
          138 12 70 49 92 vvcurveto
          116 -91 31 -131 -59 -42 6 42 44 41 9 39 vhcurveto
          179 164 125 108 -607 hlineto
          endchar
        </CharString>
        <CharString name="dvDD_R">
          -59 364 -389 -50 callsubr
          -259 807 11 callgsubr
        </CharString>
        <CharString name="dvDD_RA">
          -59 -21 632 11 callgsubr
        </CharString>
        <CharString name="dvDD_VA">
          -34 284 -155 rmoveto
          -58 -46 38 63 73 52 37 85 26 24 2 4 22 hvcurveto
          -122 vlineto
          -46 -36 -49 -69 vhcurveto
          -305 787 rmoveto
          369 -79 -89 hlineto
          -97 -79 -40 -94 -121 116 -17 84 69 58 -8 -62 -43 -32 -26 -63 -78 -44 37 45 -3 hvcurveto
          -123 hlineto
          -58 39 -50 59 -28 vhcurveto
          -58 -27 -37 -56 -72 vvcurveto
          -107 75 -72 109 57 48 20 36 30 vhcurveto
          -123 108 427 vlineto
          23 25 12 32 39 vvcurveto
          110 -83 37 -119 5 vhcurveto
          -68 2 -53 -2 51 vvcurveto
          45 43 10 37 vhcurveto
          179 164 147 108 -636 hlineto
          endchar
        </CharString>
        <CharString name="dvDD_YA">
          568 979 hmoveto
          127 -70 callgsubr
          -1237 -108 364 -92 -88 80 callgsubr
          343 hlineto
          43 57 -10 -57 -46 -41 -15 -58 hvcurveto
          -41 hlineto
          -1 -9 0 -8 -8 vvcurveto
          -159 94 -75 128 82 52 33 50 32 vhcurveto
          -140 14 rmoveto
          -84 -38 48 60 -5 hvcurveto
          92 8 53 45 71 vvcurveto
          100 -78 47 -137 vhcurveto
          -175 94 512 -304 hlineto
          -106 -56 -63 -84 vhcurveto
          endchar
        </CharString>
        <CharString name="dvDDxA">
          -59 -21 632 -33 callgsubr
          329 -979 rmoveto
          -98 callsubr
          endchar
        </CharString>
        <CharString name="dvDH">
          -200 327 84 rmoveto
          183 116 99 146 hvcurveto
          33 callgsubr
        </CharString>
        <CharString name="dvDHA">
          96 300 85 rmoveto
          97 74 37 63 42 hvcurveto
          -185 32 callsubr
          -118 100 -61 122 vhcurveto
          endchar
        </CharString>
        <CharString name="dvDH_MA">
          658 1307 632 rmoveto
          108 -779 -108 268 -172 -75 vlineto
          -111 -90 -55 -111 -12 hvcurveto
          -1 vlineto
          -59 -12 -56 -42 -101 121 callgsubr
          -105 -76 -68 -104 31 callsubr
          102 -57 136 100 76 26 46 48 vhcurveto
          -50 35 61 -30 78 hhcurveto
          131 71 82 138 hvcurveto
          59 149 -355 131 632 vlineto
          -485 -447 rmoveto
          -48 -35 32 53 54 39 31 57 328 callsubr
          -55 vhcurveto
          354 275 38 callsubr
          endchar
        </CharString>
        <CharString name="dvDH_NA">
          634 1290 632 rmoveto
          108 -762 -108 522 208 callsubr
          -118 -96 -62 -120 -12 hvcurveto
          0 vlineto
          -83 -14 -61 -42 -99 54 callgsubr
          103 78 37 68 42 vhcurveto
          -65 37 72 -37 81 -6 callgsubr
          hlineto
          -447 -436 rmoveto
          -60 -41 40 57 58 42 40 59 208 callgsubr
        </CharString>
        <CharString name="dvDH_N_YA">
          1093 1742 632 rmoveto
          108 -1225 -108 690 222 callgsubr
          -310 hlineto
          -115 -95 -59 -114 -15 hvcurveto
          -63 -22 -55 -34 -94 54 callgsubr
          97 71 29 54 43 vhcurveto
          -75 34 77 -42 88 hhcurveto
          111 92 68 328 callgsubr
          hvcurveto
          64 callgsubr
          298 callgsubr
          vlineto
          -903 -473 116 callgsubr
          600 42 rmoveto
          -101 -60 68 98 -10 hvcurveto
          115 14 62 69 105 174 callgsubr
          -104 vhcurveto
          endchar
        </CharString>
        <CharString name="dvDH_R">
          -200 327 84 rmoveto
          12 11 0 1 12 hvcurveto
          -147 -153 278 callgsubr
          197 225 rlineto
          47 43 27 59 70 vvcurveto
          33 callgsubr
        </CharString>
        <CharString name="dvDH_RA">
          96 492 160 rmoveto
          0 vlineto
          8 8 7 9 6 9 rrcurveto
          -186 32 callsubr
          -116 99 -60 122 vhcurveto
          -151 -156 rlineto
          141 hlineto
          endchar
        </CharString>
        <CharString name="dvDH_VA">
          475 1037 632 rmoveto
          313 callgsubr
          hlineto
          -52 callsubr
          -105 -76 -68 -104 31 callsubr
          102 -57 137 320 callgsubr
          vhcurveto
          153 callgsubr
          127 vlineto
          -260 63 callgsubr
        </CharString>
        <CharString name="dvDH_YA">
          570 327 84 -56 callsubr
          -105 -76 -68 -104 31 callsubr
          108 -57 141 vhcurveto
          478 117 105 callsubr
          endchar
        </CharString>
        <CharString name="dvD_BA">
          187 callgsubr
          -113 79 -88 125 66 54 28 53 31 vhcurveto
          19 callgsubr
        </CharString>
        <CharString name="dvD_BHA">
          789 540 -306 -50 callsubr
          -435 724 -9 callgsubr
          874 -555 -72 callsubr
          139 -355 129 632 112 108 -241 -280 -139 5 callgsubr
        </CharString>
        <CharString name="dvD_B_RA">
          187 callgsubr
          -100 62 -80 100 -18 vhcurveto
          -112 -115 262 callgsubr
          134 149 15 12 13 15 10 17 rlinecurve
          19 callgsubr
        </CharString>
        <CharString name="dvD_DA">
          -66 385 -76 rmoveto
          126 274 -107 hlineto
          -26 -7 -23 -12 -17 vhcurveto
          0 vlineto
          0 vlineto
          -27 -19 -33 -15 -45 hhcurveto
          -65 -36 31 48 42 27 28 60 hvcurveto
          69 93 -66 hlineto
          -63 -32 28 39 51 48 17 60 hvcurveto
          150 165 143 108 -610 -108 341 -80 hlineto
          1 -21 -20 0 -20 hhcurveto
          -108 -93 -35 -106 -70 48 -44 64 -13 hvcurveto
          -3 vlineto
          -66 -12 -44 -49 -71 vvcurveto
          -105 87 -51 96 77 46 29 35 25 vhcurveto
          endchar
        </CharString>
        <CharString name="dvD_DHA">
          285 113 callsubr
          694 -91 -50 hlineto
          -150 -116 -81 -155 -85 31 -61 48 -37 hvcurveto
          -81 -17 -53 -49 -69 hhcurveto
          263 callsubr
          47 37 35 76 -4 hvcurveto
          106 vlineto
          -167 12 -73 -78 -97 vvcurveto
          -91 61 -44 59 -16 vhcurveto
          56 callgsubr
        </CharString>
        <CharString name="dvD_GA">
          225 callgsubr
          -110 vlineto
          -38 -11 -44 275 callsubr
          -103 62 -66 111 125 53 82 106 vhcurveto
          91 vlineto
          47 6 38 21 24 30 rrcurveto
          -413 119 172 callgsubr
        </CharString>
        <CharString name="dvD_GHA">
          285 297 -8 rmoveto
          263 callsubr
          44 34 34 64 27 30 -7 -13 30 hvcurveto
          -11 -29 -7 -32 -37 vvcurveto
          -85 31 -61 48 -37 vhcurveto
          -81 -17 -53 -49 -69 hhcurveto
          -318 640 rmoveto
          694 -91 -50 hlineto
          -74 -66 -20 -39 -48 hvcurveto
          30 -48 -61 19 -58 hhcurveto
          -142 -63 -74 -91 -91 61 -44 59 -16 hvcurveto
          56 callgsubr
        </CharString>
        <CharString name="dvD_G_RA">
          225 callgsubr
          -52 vlineto
          -38 -11 -43 275 callsubr
          -104 62 -65 111 125 53 82 105 vhcurveto
          33 vlineto
          47 6 38 21 24 30 rrcurveto
          -166 vlineto
          -305 -304 rlineto
          126 hlineto
          186 195 rlineto
          -138 112 172 callgsubr
        </CharString>
        <CharString name="dvD_MA">
          220 283 -153 rmoveto
          -47 -31 31 43 54 42 24 47 hvcurveto
          64 -54 hlineto
          -61 -26 -37 -49 vhcurveto
          193 258 rmoveto
          1 183 rlineto
          -195 hlineto
          -53 -38 25 45 51 38 22 52 hvcurveto
          177 201 167 -527 hlineto
          -646 527 rmoveto
          353 -91 -66 hlineto
          -115 -88 -50 -130 -116 91 -60 115 hvcurveto
          91 -80 -57 hlineto
          -115 -97 -48 -132 -114 76 -71 117 128 65 81 136 hvcurveto
          42 148 -298 129 931 114 108 -889 vlineto
          endchar
        </CharString>
        <CharString name="dvD_NA">
          769 540 -306 -50 callsubr
          445 288 -102 callgsubr
          -318 -223 rmoveto
          316 -119 vlineto
          -73 -55 -35 -55 -74 -47 47 73 84 63 45 85 150 callgsubr
          671 240 callsubr
          hlineto
          -92 callgsubr
          214 callgsubr
          -67 callsubr
          -1438 -108 312 callgsubr
          65 callsubr
          hvcurveto
          -165 vlineto
          endchar
        </CharString>
        <CharString name="dvD_R">
          -18 540 -306 -50 callsubr
          -435 724 300 callgsubr
          -128 75 -74 99 -17 hvcurveto
          -147 -153 278 callgsubr
          175 191 rlineto
          -1 callgsubr
          -652 hlineto
          endchar
        </CharString>
        <CharString name="dvD_RA">
          -18 -21 632 300 callgsubr
          -128 75 -74 99 -17 hvcurveto
          -147 -153 278 callgsubr
          175 191 rlineto
          -1 callgsubr
          -652 hlineto
          endchar
        </CharString>
        <CharString name="dvD_VA">
          -20 113 callsubr
          397 -91 -55 hlineto
          -150 -103 -70 -135 -81 37 -55 53 -30 hvcurveto
          235 callsubr
          119 563 -112 vlineto
          -66 -54 -35 -55 -68 -42 141 callgsubr
          -650 hlineto
          321 -823 185 callsubr
          endchar
        </CharString>
        <CharString name="dvD_YA">
          80 304 131 rmoveto
          -71 -45 27 51 50 40 20 55 hvcurveto
          60 98 -58 hlineto
          -55 -42 21 45 31 18 17 25 10 hvcurveto
          -6 vlineto
          4 7 rlineto
          5 15 17 2 17 hhcurveto
          70 123 137 -312 hlineto
          -135 -84 -54 -103 vhcurveto
          -312 501 rmoveto
          239 -75 hlineto
          -9 -9 0 -10 hhcurveto
          -65 -81 -26 -89 -72 58 -33 54 -9 hvcurveto
          -4 vlineto
          -52 -10 -58 -36 -82 vvcurveto
          -104 92 -57 124 105 72 35 68 39 vhcurveto
          -138 127 -100 callsubr
          -737 vlineto
          endchar
        </CharString>
        <CharString name="dvE">
          24 113 callsubr
          219 callsubr
          144 92 83 144 vhcurveto
          42 callgsubr
          -694 vlineto
          endchar
        </CharString>
        <CharString name="dvEcandra">
          24 113 callsubr
          219 callsubr
          144 92 83 144 vhcurveto
          42 callgsubr
          -694 vlineto
          349 86 -8 callsubr
        </CharString>
        <CharString name="dvEight">
          17 callgsubr
        </CharString>
        <CharString name="dvEyelash">
          -297 424 361 rmoveto
          -49 72 rlineto
          -8 -20 -25 -9 -38 hhcurveto
          -68 -68 29 87 -3 hvcurveto
          -123 hlineto
          -156 4 121 -54 119 hhcurveto
          59 56 17 22 35 hvcurveto
          -445 271 rmoveto
          434 108 -434 hlineto
          endchar
        </CharString>
        <CharString name="dvEyelash_HA">
          168 747 71 -86 callsubr
          -837 -108 581 197 callgsubr
          -13 2 -12 3 -11 hvcurveto
          -1 -9 -8 -1 -11 hhcurveto
          -60 -56 33 73 hvcurveto
          -123 hlineto
          -141 3 108 -67 106 hhcurveto
          55 34 13 13 23 hvcurveto
          2 -1 2 -1 2 -1 89 callgsubr
        </CharString>
        <CharString name="dvEyelash_YA">
          341 576 201 rmoveto
          -82 callsubr
          303 308 callgsubr
          111 108 -1011 -108 476 -54 vlineto
          -99 -46 -48 -112 vhcurveto
          -64 2 -73 31 81 vvcurveto
          -123 hlineto
          4 -151 119 -58 122 -5 rrcurveto
          -146 16 93 -92 158 15 callsubr
          vlineto
          endchar
        </CharString>
        <CharString name="dvFive">
          55 callsubr
        </CharString>
        <CharString name="dvFour">
          129 callsubr
        </CharString>
        <CharString name="dvG">
          -107 113 callsubr
          315 -248 hlineto
          -103 callsubr
          118 108 -563 vlineto
          endchar
        </CharString>
        <CharString name="dvGA">
          161 569 hmoveto
          -67 callsubr
          -830 292 callgsubr
          -248 hlineto
          -103 callsubr
          145 vlineto
          endchar
        </CharString>
        <CharString name="dvGH">
          179 callsubr
          170 101 117 143 vhcurveto
          156 callsubr
        </CharString>
        <CharString name="dvGHA">
          75 322 116 callsubr
          37 60 hvcurveto
          52 268 callsubr
          -343 428 rmoveto
          107 -58 hlineto
          186 callsubr
          130 -70 callgsubr
          -745 vlineto
          endchar
        </CharString>
        <CharString name="dvGH_MA">
          609 1017 460 38 callsubr
          -354 -447 rmoveto
          -92 callsubr
          -350 19 333 callgsubr
          56 104 -46 287 callgsubr
          533 -172 -76 vlineto
          -102 -83 -46 -93 -22 hvcurveto
          -4 -12 rlineto
          -80 -25 -52 -25 -71 hhcurveto
          945 428 rmoveto
          108 -1279 140 callgsubr
          88 -62 129 80 70 24 53 41 vhcurveto
          -62 33 66 -37 86 47 callsubr
          vlineto
          endchar
        </CharString>
        <CharString name="dvGH_NA">
          589 680 196 -102 callgsubr
          -367 8 333 callgsubr
          48 104 -38 287 callgsubr
          783 208 callsubr
          -111 -91 -54 -105 -21 hvcurveto
          -3 -12 rlineto
          -95 -28 -47 -29 -75 hhcurveto
          925 428 rmoveto
          108 -1259 140 callgsubr
          87 -62 127 85 75 26 66 41 vhcurveto
          -66 37 72 -37 82 -6 callgsubr
          hlineto
          endchar
        </CharString>
        <CharString name="dvGH_R">
          179 callsubr
          vhcurveto
          2 hlineto
          -143 -149 rlineto
          139 hlineto
          192 217 rlineto
          52 47 29 69 76 vvcurveto
          156 callsubr
        </CharString>
        <CharString name="dvGH_RA">
          75 322 116 callsubr
          39 61 hvcurveto
          49 268 callsubr
          -343 428 rmoveto
          107 -58 hlineto
          34 callgsubr
          -113 91 -59 117 -4 vhcurveto
          -150 -156 278 callgsubr
          204 229 rlineto
          -2 hlineto
          5 5 3 4 4 5 rrcurveto
          -192 130 -70 callgsubr
          -745 vlineto
          endchar
        </CharString>
        <CharString name="dvGH_YA">
          544 322 116 callsubr
          37 60 hvcurveto
          52 442 183 callgsubr
          -11 0 -12 1 -10 vhcurveto
          -80 -7 -58 -58 -96 hhcurveto
          456 -3 13 callsubr
          -1213 140 callgsubr
          97 -62 153 94 73 36 56 46 vhcurveto
          -62 45 73 -35 98 73 callgsubr
        </CharString>
        <CharString name="dvG_BA">
          537 951 hmoveto
          125 -70 callgsubr
          -1207 292 callgsubr
          -248 hlineto
          -103 callsubr
          527 -158 vlineto
          197 callsubr
          -138 -104 -96 -142 127 callsubr
          hvcurveto
          104 callsubr
        </CharString>
        <CharString name="dvG_BHA">
          676 741 267 callgsubr
          56 328 callsubr
          -54 vhcurveto
          2 -109 rmoveto
          132 188 callgsubr
          -50 99 -144 -26 -22 -3 -6 -20 vhcurveto
          -704 292 callgsubr
          -248 hlineto
          -103 callsubr
          301 vlineto
          4 9 11 3 10 hhcurveto
          49 21 -39 -57 hvcurveto
          -83 -75 vlineto
          -119 -95 -63 -128 132 callgsubr
          hvcurveto
          endchar
        </CharString>
        <CharString name="dvG_BH_YA">
          1111 741 -32 callgsubr
          105 vlineto
          -160 8 96 -102 164 -4 callgsubr
          -149 295 callgsubr
          -703 292 callgsubr
          -248 hlineto
          -103 callsubr
          143 vlineto
          170 callsubr
          -74 vlineto
          -119 -95 -63 -128 132 callgsubr
          hvcurveto
          604 125 8 callsubr
          endchar
        </CharString>
        <CharString name="dvG_DA">
          460 1018 -27 rmoveto
          -76 callsubr
          hlineto
          1 108 rlineto
          -1130 292 callgsubr
          -248 hlineto
          -103 callsubr
          429 -91 -50 vlineto
          -151 -116 -81 -155 65 callsubr
          hvcurveto
          -165 vlineto
          endchar
        </CharString>
        <CharString name="dvG_DHA">
          567 765 85 rmoveto
          97 74 37 63 42 hvcurveto
          -185 38 callgsubr
          -72 -51 28 58 51 41 31 72 vhcurveto
          -96 callgsubr
          -22 272 callgsubr
          -674 292 callgsubr
          -248 hlineto
          -103 callsubr
          119 vlineto
          -5 -17 -3 -18 -20 vvcurveto
          -19 callsubr
          -118 100 -61 122 vhcurveto
          endchar
        </CharString>
        <CharString name="dvG_DH_VA">
          964 1502 hmoveto
          632 313 callgsubr
          vlineto
          -52 callsubr
          -22 272 callgsubr
          -674 292 callgsubr
          -248 hlineto
          -103 callsubr
          119 vlineto
          -5 -17 -3 -18 -20 vvcurveto
          31 callsubr
          102 -57 137 320 callgsubr
          vhcurveto
          153 callgsubr
          vlineto
          -133 63 callgsubr
        </CharString>
        <CharString name="dvG_DH_YA">
          1035 1270 201 105 callsubr
          -478 -117 -56 callsubr
          -22 272 callgsubr
          -674 292 callgsubr
          -248 hlineto
          -103 callsubr
          119 vlineto
          -5 -17 -3 -18 -20 vvcurveto
          83 callsubr
          endchar
        </CharString>
        <CharString name="dvG_GA">
          641 1051 hmoveto
          -67 callsubr
          -1312 292 callgsubr
          -248 hlineto
          -103 callsubr
          352 -248 vlineto
          -103 callsubr
          145 vlineto
          endchar
        </CharString>
        <CharString name="dvG_GHA">
          545 792 116 callsubr
          37 60 hvcurveto
          52 268 callsubr
          292 -204 145 callgsubr
          -1215 292 callgsubr
          -248 vlineto
          -103 callsubr
          132 -58 vlineto
          186 callsubr
          vlineto
          endchar
        </CharString>
        <CharString name="dvG_JA">
          700 1238 109 callsubr
          -1370 292 callgsubr
          -248 vlineto
          -103 callsubr
          685 -140 -269 -162 vlineto
          -82 callgsubr
          143 -382 vlineto
          endchar
        </CharString>
        <CharString name="dvG_LA">
          759 1077 44 rmoveto
          -64 callgsubr
          -1428 292 callgsubr
          -248 vlineto
          -103 callsubr
          643 -75 callgsubr
          endchar
        </CharString>
        <CharString name="dvG_MA">
          681 1089 460 38 callsubr
          -354 -447 rmoveto
          -92 callsubr
          484 -185 -40 callgsubr
          -1351 292 callgsubr
          -248 vlineto
          -103 callsubr
          396 -172 -76 vlineto
          -78 callsubr
          149 -355 vlineto
          endchar
        </CharString>
        <CharString name="dvG_NA">
          663 755 196 -102 callgsubr
          447 -196 -40 callgsubr
          -1334 292 callgsubr
          -248 vlineto
          -103 callsubr
          649 208 callsubr
          -92 callgsubr
          214 callgsubr
          hlineto
          endchar
        </CharString>
        <CharString name="dvG_NNA">
          725 768 268 rmoveto
          -58 callsubr
          495 -268 -40 callgsubr
          -1395 292 callgsubr
          -248 vlineto
          -103 callsubr
          134 -260 vlineto
          -7 callgsubr
          157 -632 vlineto
          endchar
        </CharString>
        <CharString name="dvG_N_YA">
          1118 755 159 rmoveto
          -39 callgsubr
          -1789 292 callgsubr
          -248 vlineto
          -103 callsubr
          810 91 callgsubr
        </CharString>
        <CharString name="dvG_R">
          58 callgsubr
          endchar
        </CharString>
        <CharString name="dvG_RA">
          44 callsubr
          endchar
        </CharString>
        <CharString name="dvG_R_YA">
          598 833 201 rmoveto
          -82 callsubr
          -27 -108 rmoveto
          48 callgsubr
          -67 callsubr
          -1268 292 callgsubr
          -185 vlineto
          -16 callgsubr
          288 183 callgsubr
          -22 2 -21 3 -20 vhcurveto
          -347 -332 rlineto
          149 hlineto
          232 232 rlineto
          -75 43 78 -44 109 hhcurveto
          endchar
        </CharString>
        <CharString name="dvG_SA">
          669 905 556 rmoveto
          76 173 -208 -208 159 callsubr
          57 -368 -94 callsubr
          408 -319 128 213 callsubr
          -1339 292 callgsubr
          -248 vlineto
          -103 callsubr
          353 -76 vlineto
          62 callgsubr
        </CharString>
        <CharString name="dvG_VA">
          518 796 178 -83 callsubr
          -1188 292 callgsubr
          -248 vlineto
          -103 callsubr
          507 59 callsubr
        </CharString>
        <CharString name="dvG_YA">
          598 833 201 rmoveto
          -82 callsubr
          303 308 callgsubr
          111 108 -1268 292 callgsubr
          -248 vlineto
          -103 callsubr
          288 -54 vlineto
          93 callsubr
          vlineto
          endchar
        </CharString>
        <CharString name="dvGx">
          -107 113 callsubr
          315 -248 hlineto
          -103 callsubr
          118 108 -563 vlineto
          257 -774 rmoveto
          -98 callsubr
          endchar
        </CharString>
        <CharString name="dvGxA">
          160 569 hmoveto
          -67 callsubr
          -830 292 callgsubr
          -248 hlineto
          -103 callsubr
          145 vlineto
          -333 -666 rmoveto
          -98 callsubr
          endchar
        </CharString>
        <CharString name="dvGx_R">
          58 callgsubr
          123 -711 -28 callgsubr
          endchar
        </CharString>
        <CharString name="dvGx_RA">
          44 callsubr
          -470 -180 -28 callgsubr
          endchar
        </CharString>
        <CharString name="dvH">
          -42 537 71 -86 callsubr
          -627 152 callsubr
          45 -24 hvcurveto
          29 callgsubr
          -172 -459 -50 callsubr
          endchar
        </CharString>
        <CharString name="dvHA">
          -42 537 71 -86 callsubr
          -627 152 callsubr
          45 -24 hvcurveto
          94 callsubr
        </CharString>
        <CharString name="dvHA_mU">
          -42 343 -360 rmoveto
          138 87 67 113 117 -75 65 -150 -92 -60 46 73 66 45 48 70 74 35 -53 -55 hvcurveto
          121 hlineto
          108 -65 103 -163 224 callgsubr
          vhcurveto
          -25 11 -16 20 27 vvcurveto
          45 37 15 42 vhcurveto
          177 180 133 108 -627 152 callsubr
          44 -24 hvcurveto
          -60 -36 -36 -62 -78 vvcurveto
          -137 100 -86 178 78 36 -31 -50 -50 -43 -30 -71 -77 -59 35 77 3 vhcurveto
          -114 hlineto
          -145 -4 117 -67 134 hhcurveto
          endchar
        </CharString>
        <CharString name="dvHA_mUU">
          -42 322 -346 rmoveto
          92 -30 vlineto
          -46 -40 25 50 52 45 29 58 98 55 -69 -120 hvcurveto
          -54 105 vlineto
          15 1 16 16 vvcurveto
          156 -68 140 -189 vhcurveto
          0 vlineto
          -74 1 -46 46 72 vvcurveto
          66 45 48 70 74 37 -53 -59 -2 vhcurveto
          121 hlineto
          110 3 -68 105 -163 hhcurveto
          311 callsubr
          45 37 15 42 vhcurveto
          177 180 133 108 -627 152 callsubr
          43 -24 hvcurveto
          -59 -36 -36 -61 -78 vvcurveto
          -76 33 -60 61 -36 vhcurveto
          -36 -31 -21 -45 -56 vvcurveto
          -113 83 -56 99 13 12 1 1 13 vhcurveto
          endchar
        </CharString>
        <CharString name="dvHA_mvR">
          45 411 -237 rmoveto
          87 vlineto
          -140 -106 79 138 113 66 86 140 89 46 -20 -46 21 hvcurveto
          1 -22 -22 1 -29 hhcurveto
          -106 -56 -54 -79 -97 81 -38 78 34 28 4 9 25 hvcurveto
          77 vlineto
          -7 -19 -26 -4 -26 hhcurveto
          -42 -39 17 42 35 23 27 51 hvcurveto
          161 hlineto
          124 -7 -82 92 -165 hhcurveto
          -40 -36 -5 -8 -32 hvcurveto
          -28 268 callgsubr
          311 180 97 108 -715 -108 508 -90 -241 194 callgsubr
          -73 -48 -39 -81 -100 vvcurveto
          -188 141 -125 208 5 vhcurveto
          endchar
        </CharString>
        <CharString name="dvH_LA">
          77 375 -227 rmoveto
          83 vlineto
          -115 -98 78 133 115 67 87 142 88 50 -38 -48 21 hvcurveto
          -27 -13 -16 -22 -9 -23 rrcurveto
          -2 hlineto
          35 -13 -30 32 -55 hhcurveto
          -68 -54 -42 -85 -80 48 -58 92 6 6 0 1 7 hvcurveto
          67 vlineto
          -1 -6 -5 0 -4 hhcurveto
          -42 -23 26 43 35 19 26 34 34 19 -30 -42 hvcurveto
          -10 71 10 vlineto
          43 20 29 35 32 21 -26 -36 -42 -25 -26 -41 -5 -5 0 1 -5 vhcurveto
          -67 vlineto
          -1 8 6 0 5 hhcurveto
          93 48 58 80 68 -36 41 -49 13 hvcurveto
          94 -24 -81 69 -142 hhcurveto
          -40 -36 -5 -8 -32 hvcurveto
          -28 268 callgsubr
          315 180 124 108 -746 -108 513 -90 -246 194 callgsubr
          -73 -48 -39 -81 -100 vvcurveto
          -181 135 -122 178 5 vhcurveto
          endchar
        </CharString>
        <CharString name="dvH_MA">
          675 217 392 rmoveto
          45 37 15 42 vhcurveto
          177 180 341 -172 -76 hlineto
          -95 -79 -40 -82 -28 hvcurveto
          -228 301 callsubr
          512 -207 rmoveto
          -92 callsubr
          354 275 38 callsubr
          -777 -741 209 callgsubr
          73 hvcurveto
          219 hlineto
          -97 15 78 -62 111 47 callsubr
          111 108 -1345 -108 371 -87 -100 vlineto
          206 callsubr
        </CharString>
        <CharString name="dvH_NA">
          661 217 392 rmoveto
          45 37 15 42 vhcurveto
          177 180 589 240 callsubr
          hlineto
          -111 -92 -55 -106 -20 hvcurveto
          -222 301 callsubr
          527 -196 -102 callgsubr
          -438 -305 209 callgsubr
          74 hvcurveto
          224 hlineto
          -94 25 85 -54 99 -6 callgsubr
          111 108 -1323 -108 371 -87 -100 hlineto
          206 callsubr
        </CharString>
        <CharString name="dvH_NNA">
          63 372 16 rmoveto
          -30 -18 25 34 hvcurveto
          188 vlineto
          2 15 16 1 18 hhcurveto
          17 16 -1 -2 14 hvcurveto
          -188 vlineto
          -34 -17 -25 -31 vhcurveto
          -12 -243 rmoveto
          87 vlineto
          -104 3 -89 71 133 vvcurveto
          80 15 65 68 32 vhcurveto
          -162 vlineto
          -72 41 -57 81 81 41 55 74 vhcurveto
          160 vlineto
          62 -34 13 -67 -85 vvcurveto
          -123 93 123 vlineto
          162 -76 132 -216 -41 -36 -5 -8 -33 vhcurveto
          -29 268 callgsubr
          316 180 113 108 -736 -108 513 -90 -246 194 callgsubr
          -73 -48 -39 283 callgsubr
        </CharString>
        <CharString name="dvH_R">
          4 callsubr
          -173 -454 -50 callsubr
          endchar
        </CharString>
        <CharString name="dvH_RA">
          4 callsubr
          endchar
        </CharString>
        <CharString name="dvH_VA">
          26 440 -6 rmoveto
          -43 -31 29 46 44 33 29 41 hvcurveto
          51 -1 23 -37 -36 vvcurveto
          -1 vlineto
          -34 -23 -39 -51 vhcurveto
          -80 -221 rmoveto
          -1 87 rlineto
          -101 3 -88 71 133 vvcurveto
          113 69 80 121 85 54 -43 -62 12 vhcurveto
          -19 27 -33 20 -44 -1 -79 -1 -58 -51 1 -80 rrcurveto
          -77 52 -58 84 48 35 23 33 19 vhcurveto
          -111 93 219 vlineto
          138 -85 114 -180 -31 -30 -4 -8 -27 vhcurveto
          -30 11 -17 20 27 vvcurveto
          41 35 15 41 vhcurveto
          268 180 -90 callgsubr
          -686 -108 463 -90 -196 194 callgsubr
          -68 -48 -44 283 callgsubr
        </CharString>
        <CharString name="dvH_YA">
          265 556 -20 rmoveto
          -68 -38 39 49 -9 hvcurveto
          66 8 54 38 81 vvcurveto
          105 -89 50 -125 -34 -32 -4 -8 -29 vhcurveto
          -27 12 -16 19 27 vvcurveto
          41 35 15 39 vhcurveto
          242 180 159 -488 hlineto
          -90 -36 -74 -92 vhcurveto
          132 -133 rmoveto
          113 785 234 callgsubr
          -934 -108 433 -90 -168 hlineto
          -97 -61 -45 -76 -55 33 -42 50 -24 hvcurveto
          -70 -47 -39 -78 -99 vvcurveto
          -179 133 -121 181 2 vhcurveto
          90 vlineto
          -113 3 -90 73 128 vvcurveto
          108 65 76 111 56 49 -20 -51 -46 -35 -22 -75 vhcurveto
          -7 hlineto
          -1 -9 -1 -10 -10 vvcurveto
          -108 67 -88 132 74 50 30 49 32 vhcurveto
          endchar
        </CharString>
        <CharString name="dvI">
          -49 -27 632 rmoveto
          370 -90 -91 hlineto
          75 callgsubr
          132 hlineto
          56 callsubr
          -633 hlineto
          endchar
        </CharString>
        <CharString name="dvII">
          -49 208 51 rmoveto
          56 callsubr
          -141 69 187 callsubr
          -68 -372 -108 370 -90 -91 vlineto
          75 callgsubr
          hlineto
          endchar
        </CharString>
        <CharString name="dvII_Anusvara">
          -49 208 51 rmoveto
          56 callsubr
          -142 76 hlineto
          72 34 45 63 59 33 -40 -45 2 vhcurveto
          104 hlineto
          117 2 -76 68 -121 hhcurveto
          -152 -63 -106 -110 hvcurveto
          -77 -376 -108 370 -90 -91 vlineto
          75 callgsubr
          hlineto
          348 863 9 callsubr
        </CharString>
        <CharString name="dvJ">
          87 callsubr
          endchar
        </CharString>
        <CharString name="dvJA">
          224 113 callsubr
          654 -140 -269 -162 hlineto
          -82 callgsubr
          143 -382 -67 callsubr
          -894 vlineto
          endchar
        </CharString>
        <CharString name="dvJH">
          -64 212 50 rmoveto
          7 callgsubr
          192 97 -412 hlineto
          1 callgsubr
          222 108 -710 341 callsubr
          -90 -91 hlineto
          13 callgsubr
        </CharString>
        <CharString name="dvJHA">
          234 277 329 rmoveto
          1 callgsubr
          178 -303 hlineto
          -329 vmoveto
          126 -100 callsubr
          -903 341 callsubr
          -90 -91 hlineto
          -13 callgsubr
          131 hlineto
          7 callgsubr
          148 hlineto
          endchar
        </CharString>
        <CharString name="dvJH_MA">
          755 1162 460 38 callsubr
          -354 -447 rmoveto
          -92 callsubr
          -531 144 rmoveto
          1 callgsubr
          426 -172 -76 hlineto
          -99 -81 -43 -88 -25 hvcurveto
          -400 -279 rmoveto
          7 callgsubr
          110 hlineto
          -95 16 77 -61 110 47 callsubr
          111 108 -1424 341 callsubr
          -90 -91 vlineto
          13 callgsubr
        </CharString>
        <CharString name="dvJH_NA">
          728 277 329 rmoveto
          1 callgsubr
          670 240 callsubr
          hlineto
          -114 -94 -58 -112 -16 hvcurveto
          215 -133 -102 callgsubr
          -607 -146 rmoveto
          7 callgsubr
          112 hlineto
          -92 26 84 -53 98 -6 callgsubr
          111 108 -1398 341 callsubr
          -90 -91 hlineto
          13 callgsubr
        </CharString>
        <CharString name="dvJH_R">
          -64 212 50 rmoveto
          7 callgsubr
          238 97 -458 hlineto
          1 callgsubr
          268 108 -756 341 callsubr
          -90 -91 hlineto
          160 callsubr
          523 163 rmoveto
          129 vlineto
          -282 -322 rlineto
          130 hlineto
          endchar
        </CharString>
        <CharString name="dvJH_RA">
          308 277 329 rmoveto
          1 callgsubr
          252 -303 hlineto
          4 -329 rmoveto
          123 -70 callgsubr
          -977 341 callsubr
          -90 -91 hlineto
          -13 callgsubr
          131 hlineto
          7 callgsubr
          226 -29 hlineto
          -270 -314 rlineto
          130 hlineto
          140 173 rlineto
          endchar
        </CharString>
        <CharString name="dvJH_YA">
          664 277 329 rmoveto
          1 callgsubr
          311 182 callsubr
          -16 1 -15 1 -15 vhcurveto
          294 -128 rmoveto
          -82 callsubr
          -687 -151 rmoveto
          7 callgsubr
          134 hlineto
          -87 41 82 -52 118 220 callgsubr
          111 108 -1334 341 callsubr
          -90 -91 vlineto
          13 callgsubr
        </CharString>
        <CharString name="dvJ_BA">
          608 876 164 rmoveto
          -84 -72 56 94 29 7 25 12 22 hvcurveto
          239 -191 rlineto
          -21 -25 -34 -14 -43 hhcurveto
          146 -164 rmoveto
          125 -70 callgsubr
          -1278 -108 1043 283 callsubr
          -66 -58 -22 -38 -43 hvcurveto
          -318 -162 hlineto
          -82 callgsubr
          126 vlineto
          -6 -21 -3 -23 -24 218 callgsubr
          -146 316 rmoveto
          99 249 callgsubr
          -25 -11 -23 158 callsubr
          27 35 12 39 hhcurveto
          endchar
        </CharString>
        <CharString name="dvJ_DA">
          536 1094 -27 rmoveto
          -76 callsubr
          hlineto
          1 108 rlineto
          -1206 -108 950 -91 -50 hlineto
          -68 -61 -17 -32 -47 hvcurveto
          -339 -162 hlineto
          -80 callgsubr
          56 133 vlineto
          -7 -23 -4 -26 -29 256 callgsubr
        </CharString>
        <CharString name="dvJ_DDA">
          470 839 -18 rmoveto
          -65 callgsubr
          -1138 -108 892 -92 -88 hlineto
          -57 -53 -15 -33 -34 hvcurveto
          -275 -162 hlineto
          -82 callgsubr
          111 vlineto
          -119 7 106 -25 78 hhcurveto
          6 callgsubr
        </CharString>
        <CharString name="dvJ_JA">
          791 1329 109 callsubr
          -1461 -108 1221 -140 -269 -162 vlineto
          229 callsubr
          -54 -31 41 64 vhcurveto
          162 -394 -162 vlineto
          -82 callgsubr
          137 -55 191 callsubr
          143 -382 vlineto
          endchar
        </CharString>
        <CharString name="dvJ_JHA">
          781 825 329 rmoveto
          1 callgsubr
          178 -303 hlineto
          -329 vmoveto
          126 -100 callsubr
          -1451 -108 912 -90 -91 hlineto
          -57 -54 -15 -35 -34 hvcurveto
          -291 -162 hlineto
          -82 callgsubr
          127 vlineto
          4 -101 84 -39 81 -4 rrcurveto
          -25 callgsubr
          131 hlineto
          7 callgsubr
          148 hlineto
          endchar
        </CharString>
        <CharString name="dvJ_J_NYA">
          739 1149 hmoveto
          127 -100 callsubr
          -1408 -108 1170 -141 -785 -161 hlineto
          229 callsubr
          -54 -31 41 64 vhcurveto
          161 -131 -164 23 callgsubr
          61 324 vlineto
          67 60 -38 -75 -59 -37 -47 -68 -62 -50 38 65 -7 hvcurveto
          -121 -280 126 137 hlineto
          -38 31 54 -28 69 hhcurveto
          103 79 70 109 68 -29 48 -44 30 hvcurveto
          164 hlineto
          endchar
        </CharString>
        <CharString name="dvJ_J_VA">
          1162 1439 178 -83 callsubr
          -1831 -108 1595 -15 callsubr
          -62 -52 -20 -34 -39 hvcurveto
          -321 -162 hlineto
          229 callsubr
          -54 -31 41 64 vhcurveto
          162 -394 -162 vlineto
          -82 callgsubr
          137 -55 191 callsubr
          130 vlineto
          -5 -21 -3 -23 -24 vvcurveto
          -63 callsubr
        </CharString>
        <CharString name="dvJ_J_YA">
          1246 1481 201 rmoveto
          -105 -61 67 99 -2 hvcurveto
          113 14 62 68 106 vvcurveto
          77 167 244 callsubr
          -1916 -108 1382 -54 vlineto
          -83 -47 -40 -113 vhcurveto
          -271 -125 hlineto
          -64 -31 -41 -56 -54 -32 41 64 vhcurveto
          125 -393 -125 vlineto
          229 callsubr
          -54 -31 41 64 vhcurveto
          125 -131 -128 23 callgsubr
          18 138 -18 280 callsubr
          -89 140 -11 callgsubr
          20 73 vlineto
          22 19 0 1 16 hvcurveto
          -157 16 95 -98 155 44 callgsubr
          vlineto
          endchar
        </CharString>
        <CharString name="dvJ_KA">
          903 988 hmoveto
          -91 callsubr
          -1572 -108 1009 -171 vlineto
          97 callsubr
          -57 -48 -18 -32 -37 hvcurveto
          -322 -162 hlineto
          -82 callgsubr
          132 vlineto
          -5 -22 -3 -24 -26 100 callsubr
          230 callgsubr
          endchar
        </CharString>
        <CharString name="dvJ_MA">
          754 1162 479 rmoveto
          -150 153 150 hlineto
          -355 -428 rmoveto
          -47 -36 32 52 53 40 32 57 hvcurveto
          71 -74 hlineto
          -57 -30 -38 -55 vhcurveto
          485 -204 -40 callgsubr
          -1424 -108 913 -153 -528 -149 vlineto
          229 callsubr
          -54 -31 41 64 vhcurveto
          149 -131 -152 23 callgsubr
          49 139 vlineto
          -15 -26 -9 -31 -39 vvcurveto
          -111 82 -74 123 131 71 79 133 vhcurveto
          66 150 -373 vlineto
          endchar
        </CharString>
        <CharString name="dvJ_NA">
          741 824 189 rmoveto
          -61 -40 41 56 59 42 40 59 58 41 -41 -57 -36 callsubr
          447 -189 -40 callgsubr
          -1403 -108 1163 -140 -778 -162 vlineto
          -82 callgsubr
          137 vlineto
          -13 -27 -8 -32 -37 vvcurveto
          -129 99 -77 117 112 317 callsubr
          -385 hlineto
          endchar
        </CharString>
        <CharString name="dvJ_NY">
          -87 113 callsubr
          731 108 -731 hlineto
          264 -332 rmoveto
          30 callsubr
          263 103 -467 hlineto
          endchar
        </CharString>
        <CharString name="dvJ_NYA">
          201 611 hmoveto
          127 -100 callsubr
          -870 -108 632 -121 -368 -103 30 callsubr
          164 hlineto
          endchar
        </CharString>
        <CharString name="dvJ_NY_YA">
          689 924 201 rmoveto
          -102 -52 60 88 -12 hvcurveto
          115 18 58 76 112 vvcurveto
          77 167 -260 vlineto
          -100 -70 -71 -104 141 callsubr
          -1359 -108 824 -54 vlineto
          -76 -28 -46 -63 -17 vhcurveto
          45 -34 -59 27 -88 hhcurveto
          -288 -103 30 callsubr
          82 hlineto
          53 35 -24 -41 15 hvcurveto
          -153 19 85 -97 160 hhcurveto
          95 68 35 51 39 hvcurveto
          -179 vlineto
          endchar
        </CharString>
        <CharString name="dvJ_R">
          72 callgsubr
          endchar
        </CharString>
        <CharString name="dvJ_RA">
          48 callsubr
          endchar
        </CharString>
        <CharString name="dvJ_TA">
          629 1167 109 callsubr
          -1299 -108 1060 -138 -675 -164 vlineto
          229 callsubr
          -54 -31 41 64 vhcurveto
          164 -131 -167 23 callgsubr
          56 176 vlineto
          -32 -36 -18 -48 -64 vvcurveto
          -154 112 -79 147 vhcurveto
          39 101 -19 hlineto
          -99 -51 55 86 92 65 47 95 hvcurveto
          134 -383 hlineto
          endchar
        </CharString>
        <CharString name="dvJ_TTA">
          571 891 28 rmoveto
          175 callgsubr
          -85 callsubr
          -1240 -108 926 -91 -5 hlineto
          -74 -63 -17 -32 -48 hvcurveto
          -351 -162 hlineto
          -82 callgsubr
          137 vlineto
          -11 -29 -6 -34 -36 327 callgsubr
        </CharString>
        <CharString name="dvJ_VA">
          595 872 178 -83 callsubr
          -1264 -108 1028 -15 callsubr
          -62 -52 -20 -34 -39 hvcurveto
          -321 -162 hlineto
          -82 callgsubr
          130 vlineto
          -5 -21 -3 -23 -24 vvcurveto
          -63 callsubr
        </CharString>
        <CharString name="dvJ_YA">
          680 914 201 205 callsubr
          304 -201 rmoveto
          29 callsubr
          endchar
        </CharString>
        <CharString name="dvJx">
          87 callsubr
          299 -849 rmoveto
          -98 callsubr
          endchar
        </CharString>
        <CharString name="dvJxA">
          224 113 callsubr
          654 -140 -269 -162 hlineto
          -82 callgsubr
          143 -382 -67 callsubr
          -894 vlineto
          299 -849 rmoveto
          -98 callsubr
          endchar
        </CharString>
        <CharString name="dvJx_JxA">
          791 278 -109 rmoveto
          -98 callsubr
          567 hmoveto
          -98 callsubr
          484 109 -40 callgsubr
          -1461 -108 1221 -140 -269 -162 vlineto
          229 callsubr
          -54 -31 41 64 vhcurveto
          162 -394 -162 vlineto
          -82 callgsubr
          137 -55 191 callsubr
          143 -382 vlineto
          endchar
        </CharString>
        <CharString name="dvJx_R">
          72 callgsubr
          -140 11 -28 callgsubr
          endchar
        </CharString>
        <CharString name="dvJx_RA">
          48 callsubr
          167 -772 -28 callgsubr
          endchar
        </CharString>
        <CharString name="dvJx_YA">
          680 1218 hmoveto
          29 callsubr
          -809 -109 rmoveto
          -98 callsubr
          636 310 205 callsubr
          endchar
        </CharString>
        <CharString name="dvK">
          49 callgsubr
          230 callgsubr
          endchar
        </CharString>
        <CharString name="dvKA">
          348 433 hmoveto
          -91 callsubr
          -1017 167 callsubr
          vlineto
          97 callsubr
          -130 -84 -93 -139 43 callgsubr
          hvcurveto
          230 callgsubr
          endchar
        </CharString>
        <CharString name="dvKH">
          44 113 callsubr
          260 -93 hlineto
          -102 -52 -36 -85 vhcurveto
          -30 -137 hlineto
          -172 106 -97 164 109 77 57 74 41 vhcurveto
          -5 20 21 -40 callsubr
          543 -415 77 callgsubr
          endchar
        </CharString>
        <CharString name="dvKHA">
          322 629 220 52 callgsubr
          -28 -99 98 callgsubr
          -256 -15 -47 callgsubr
          endchar
        </CharString>
        <CharString name="dvKH_KHA">
          991 522 325 77 callgsubr
          776 -105 rmoveto
          -59 -47 38 70 66 48 39 58 71 31 -54 -52 1 hvcurveto
          -53 -33 -54 -70 vhcurveto
          103 -220 rmoveto
          10 callsubr
          -1661 71 callgsubr
          49 44 11 22 34 hvcurveto
          -101 37 90 -56 125 hhcurveto
          109 75 56 72 43 hvcurveto
          -1 10 11 -1 11 hhcurveto
          63 42 25 35 26 hvcurveto
          -1056 -75 rmoveto
          -79 callgsubr
          539 -107 vlineto
          -74 -27 -38 -47 -16 vhcurveto
          81 -26 -74 51 -102 hhcurveto
          77 callsubr
          669 hmoveto
          -92 -53 60 83 hvcurveto
          61 vlineto
          97 8 71 64 140 vvcurveto
          110 364 -161 vlineto
          36 -26 -42 25 -63 hhcurveto
          -112 -82 -84 -120 -66 23 -55 39 -37 hvcurveto
          -34 -21 -38 -30 -65 hhcurveto
          endchar
        </CharString>
        <CharString name="dvKH_MA">
          886 1293 460 38 callsubr
          -771 -307 77 callgsubr
          417 -140 -30 callsubr
        </CharString>
        <CharString name="dvKH_NA">
          869 959 196 rmoveto
          -61 -40 40 57 58 41 9 callgsubr
          -41 -56 -36 callsubr
          -327 21 -47 callsubr
          -287 -111 rmoveto
          -79 callgsubr
          908 208 callsubr
          -66 -55 -19 -37 -38 hvcurveto
          55 -36 -64 31 -83 hhcurveto
          -130 -88 242 callgsubr
          64 53 20 36 36 hvcurveto
          -56 37 64 -32 76 hhcurveto
          111 88 67 122 -14 callgsubr
          hvcurveto
          214 callgsubr
          -67 callsubr
          -1538 71 callgsubr
          endchar
        </CharString>
        <CharString name="dvKH_R">
          44 113 callsubr
          260 -93 hlineto
          51 callgsubr
          197 225 rlineto
          0 vlineto
          10 12 9 13 8 14 rrcurveto
          -5 20 22 -40 callsubr
          653 -523 -47 callsubr
          endchar
        </CharString>
        <CharString name="dvKH_RA">
          51 callsubr
          285 358 52 callgsubr
          -284 -114 -47 callgsubr
          endchar
        </CharString>
        <CharString name="dvKH_SHA">
          865 345 106 rmoveto
          -79 callgsubr
          554 vlineto
          4 12 11 1 11 hhcurveto
          59 34 -39 -60 -95 -85 -35 -95 hvcurveto
          -42 hlineto
          77 -29 -74 44 -99 65 callgsubr
          287 111 -21 callgsubr
        </CharString>
        <CharString name="dvKH_TA">
          738 632 217 -35 callgsubr
        </CharString>
        <CharString name="dvKH_VA">
          713 1125 hmoveto
          26 callsubr
          -359 39 -47 callsubr
          -287 -111 rmoveto
          -79 callgsubr
          756 -168 vlineto
          50 307 callgsubr
          -76 -57 -29 -49 -36 hvcurveto
          40 -37 -56 21 -69 hhcurveto
          -130 -88 -27 callsubr
          endchar
        </CharString>
        <CharString name="dvKH_YA">
          795 632 217 -44 callgsubr
        </CharString>
        <CharString name="dvKHx">
          44 113 callsubr
          260 -93 hlineto
          -102 -52 -36 -85 vhcurveto
          -30 -137 hlineto
          -172 106 -97 164 109 77 57 74 41 vhcurveto
          -5 20 21 -40 callsubr
          342 -964 rmoveto
          -98 callsubr
          201 549 77 callgsubr
          endchar
        </CharString>
        <CharString name="dvKHxA">
          322 601 121 98 callgsubr
          -280 -345 rmoveto
          -98 callsubr
          308 444 52 callgsubr
          -284 -114 -47 callgsubr
          endchar
        </CharString>
        <CharString name="dvKHx_MA">
          886 321 -224 rmoveto
          -98 callsubr
          201 549 77 callgsubr
          771 135 38 callsubr
          -354 -447 -30 callsubr
        </CharString>
        <CharString name="dvKHx_R">
          44 113 callsubr
          260 -93 hlineto
          51 callgsubr
          197 225 rlineto
          0 vlineto
          10 12 9 13 8 14 rrcurveto
          -5 20 22 -40 callsubr
          116 -881 -28 callgsubr
          537 358 -47 callsubr
          endchar
        </CharString>
        <CharString name="dvKHx_RA">
          51 callsubr
          -249 -3 -28 callgsubr
          534 361 52 callgsubr
          -284 -114 -47 callgsubr
          endchar
        </CharString>
        <CharString name="dvKHx_SA">
          870 343 -229 rmoveto
          -98 callsubr
          289 446 -47 callsubr
          -287 -111 rmoveto
          -79 callgsubr
          610 -76 vlineto
          -86 -42 -59 -110 vhcurveto
          75 -30 -74 43 -97 65 callgsubr
          763 450 rmoveto
          76 171 -208 332 callsubr
          -368 rmoveto
          -81 callsubr
          -25 44 58 vhcurveto
          116 406 -319 130 -70 callgsubr
          -1540 248 callsubr
          vlineto
          -57 callgsubr
          76 57 73 42 vhcurveto
          -4 19 19 -2 21 hhcurveto
          47 41 10 20 34 hvcurveto
          -93 20 71 -65 117 hhcurveto
          130 76 77 120 hvcurveto
          endchar
        </CharString>
        <CharString name="dvKHx_SHA">
          865 345 106 rmoveto
          -79 callgsubr
          554 vlineto
          4 12 11 1 11 hhcurveto
          59 34 -39 -60 -95 -85 -35 -95 hvcurveto
          -42 hlineto
          77 -29 -74 44 -99 65 callgsubr
          -2 -335 rmoveto
          -98 callsubr
          289 446 -21 callgsubr
        </CharString>
        <CharString name="dvKHx_TA">
          738 343 -229 rmoveto
          -98 callsubr
          289 446 -35 callgsubr
        </CharString>
        <CharString name="dvKHx_VA">
          713 343 -229 rmoveto
          -98 callsubr
          289 446 -47 callsubr
          493 -217 rmoveto
          26 callsubr
          -646 -72 rmoveto
          -79 callgsubr
          756 -168 vlineto
          50 307 callgsubr
          -76 -57 -29 -49 -36 hvcurveto
          40 -37 -56 21 -69 hhcurveto
          -130 -88 -27 callsubr
          endchar
        </CharString>
        <CharString name="dvKHx_YA">
          795 343 -229 rmoveto
          -98 callsubr
          289 446 -44 callgsubr
        </CharString>
        <CharString name="dvK_CA">
          721 986 196 rmoveto
          -67 -56 38 74 69 48 45 70 hvcurveto
          40 102 -297 hlineto
          -85 -53 -30 -47 -29 hvcurveto
          185 573 -271 vlineto
          -94 -55 -70 -89 -1 vhcurveto
          -675 -11 96 callsubr
          110 rmoveto
          67 35 60 93 vhcurveto
          133 hlineto
          -49 -31 -28 -52 -64 vvcurveto
          -124 92 -62 116 78 65 32 55 38 vhcurveto
          -176 -67 callsubr
          -1391 -95 callsubr
          vlineto
          endchar
        </CharString>
        <CharString name="dvK_DA">
          700 223 callgsubr
          537 -91 -50 hlineto
          -76 -68 -21 -40 -47 hvcurveto
          39 -35 -49 23 -61 247 callsubr
          -246 -276 -104 callsubr
          949 -212 rmoveto
          316 -120 vlineto
          -73 -54 -35 -56 -73 -47 47 73 84 62 45 85 150 callgsubr
          125 108 -1370 167 callsubr
          hlineto
          -91 callgsubr
          67 43 -50 -71 vhcurveto
          0 vlineto
          -1 0 -2 -2 vvcurveto
          -150 97 -77 119 61 50 22 38 28 vhcurveto
          -165 vlineto
          endchar
        </CharString>
        <CharString name="dvK_JA">
          939 311 185 -104 callsubr
          680 40 rmoveto
          -54 -31 41 64 hvcurveto
          12 vlineto
          107 -72 93 -126 -74 -50 -33 -48 -27 vhcurveto
          171 791 -140 -270 -162 vlineto
          -64 -32 -41 -55 vhcurveto
          -434 76 173 callsubr
          133 81 89 126 vhcurveto
          55 143 -382 -67 callsubr
          -1609 -95 callsubr
          vlineto
          endchar
        </CharString>
        <CharString name="dvK_KA">
          252 callgsubr
          -60 -50 -20 -34 -36 hvcurveto
          34 -34 -46 20 -57 247 callsubr
          -246 -276 -104 callsubr
          840 -185 rmoveto
          -91 callsubr
          -1735 139 callgsubr
          31 64 80 62 42 -43 -63 5 vhcurveto
          -5 0 -5 -5 100 callsubr
          -122 23 rmoveto
          -70 -51 48 76 hvcurveto
          1 1 vlineto
          5 0 4 5 vvcurveto
          66 6 52 42 63 hhcurveto
          327 callsubr
        </CharString>
        <CharString name="dvK_KHA">
          1027 708 535 rmoveto
          -74 -50 -32 -46 -27 hvcurveto
          175 387 -93 vlineto
          -68 -23 -38 -41 -19 vhcurveto
          73 -26 -57 48 -89 hhcurveto
          -397 -350 -104 callsubr
          1126 -185 rmoveto
          10 callsubr
          -1697 167 callsubr
          hlineto
          -91 callgsubr
          67 43 -50 -71 vhcurveto
          -59 vlineto
          -159 264 callgsubr
          63 42 25 35 26 hvcurveto
          -103 39 rmoveto
          -59 -47 38 70 66 48 39 58 71 31 -54 -52 1 hvcurveto
          -53 -34 -54 -69 vhcurveto
          -284 -114 rmoveto
          -92 -52 60 83 hvcurveto
          61 vlineto
          96 8 71 64 140 vvcurveto
          110 364 -161 vlineto
          36 -26 -42 25 -63 hhcurveto
          -112 -82 -84 -120 -66 23 -55 40 -37 hvcurveto
          -34 -22 -38 -30 -65 hhcurveto
          endchar
        </CharString>
        <CharString name="dvK_LA">
          1000 1173 406 rmoveto
          167 callgsubr
          -61 -55 -20 -39 -40 hvcurveto
          40 -31 -45 23 -57 hhcurveto
          198 callgsubr
          174 750 43 callsubr
          -862 -221 190 callsubr
          62 42 -43 -63 5 vhcurveto
          -1 -9 0 -11 -10 vvcurveto
          160 callgsubr
          163 -6 callsubr
          vhcurveto
          -87 callsubr
          -64 callgsubr
          -1668 -95 callsubr
          vlineto
          endchar
        </CharString>
        <CharString name="dvK_MA">
          921 171 callgsubr
          -397 -350 -23 callgsubr
        </CharString>
        <CharString name="dvK_NA">
          904 708 542 rmoveto
          -74 -50 -33 -48 -27 hvcurveto
          171 755 208 callsubr
          -55 -50 -13 -26 -39 hvcurveto
          52 -29 -49 30 -73 hhcurveto
          286 -346 -102 callgsubr
          -683 -11 190 callsubr
          63 42 -44 -65 5 vhcurveto
          -1 -9 -1 -10 -10 6 callsubr
          -67 callsubr
          -1573 49 callsubr
        </CharString>
        <CharString name="dvK_NNA">
          939 223 callgsubr
          214 -114 hlineto
          8 -20 -22 4 -24 hhcurveto
          -72 -49 -30 -45 -27 hvcurveto
          -246 -270 -104 callsubr
          670 83 rmoveto
          -58 callsubr
          -424 33 rmoveto
          293 callsubr
          52 37 -30 -43 14 vhcurveto
          -113 6 70 -86 133 hhcurveto
          139 71 91 122 hvcurveto
          260 157 213 callgsubr
          -1608 -95 callsubr
          vlineto
          endchar
        </CharString>
        <CharString name="dvK_PA">
          67 callsubr
          -447 18 rmoveto
          66 30 64 77 45 34 -28 -43 14 vhcurveto
          -111 20 72 -75 122 218 callsubr
          111 108 -1387 -95 callsubr
          vlineto
          endchar
        </CharString>
        <CharString name="dvK_PHA">
          215 callgsubr
          -246 -274 -104 callsubr
          697 98 -89 callgsubr
          -451 321 callsubr
          48 37 -26 -42 15 vhcurveto
          -113 18 70 -76 120 hhcurveto
          66 49 24 41 31 hvcurveto
          -88 callgsubr
          -1717 -95 callsubr
          vlineto
          endchar
        </CharString>
</ttFont>
